<svg width="853" height="547" viewBox="0 0 853 547" fill="none" xmlns="http://www.w3.org/2000/svg">
<path opacity="0.1" d="M853 444.658C844.625 448.32 835.85 451.484 827.204 454.588C795.22 466.034 762.743 477.601 728.395 481.533C663.852 488.868 597.262 468.908 533.86 481.363C480.751 491.762 436.828 523.627 384.942 537.819C360.816 544.415 335.714 547 310.388 547H307.118C304.001 547 300.896 546.9 297.778 546.8C272.1 545.982 246.316 542.809 221.143 538.647C141.661 525.673 60.7672 501.892 0 458.11C176.938 430.676 541.412 388.582 853 444.658Z" fill="#252223"/>
<path d="M129.186 453.91C129.186 453.91 104.516 370.15 133.816 308.5C146.106 282.63 150.196 253.58 144.516 225.5C141.793 212.17 137.86 199.116 132.766 186.5" stroke="#041F28" stroke-width="2" stroke-miterlimit="10"/>
<path d="M150.996 147.59C150.996 157.85 132.406 187.59 132.406 187.59C132.406 187.59 113.816 157.82 113.816 147.59C113.816 142.66 115.774 137.931 119.261 134.445C122.747 130.959 127.475 129 132.406 129C137.336 129 142.065 130.959 145.551 134.445C149.037 137.931 150.996 142.66 150.996 147.59V147.59Z" fill="#041F28"/>
<path d="M181.716 204.45C176.136 213.07 144.356 227.95 144.356 227.95C144.356 227.95 144.936 192.86 150.516 184.25C153.194 180.112 157.407 177.209 162.227 176.177C167.046 175.146 172.078 176.071 176.216 178.75C180.353 181.429 183.257 185.641 184.288 190.461C185.32 195.28 184.394 200.312 181.716 204.45V204.45Z" fill="#041F28"/>
<path d="M180.376 301.62C171.206 306.24 136.256 303.04 136.256 303.04C136.256 303.04 154.476 273.04 163.636 268.42C168.038 266.2 173.142 265.82 177.825 267.364C182.508 268.907 186.386 272.247 188.606 276.65C190.825 281.053 191.206 286.157 189.662 290.839C188.119 295.522 184.778 299.4 180.376 301.62V301.62Z" fill="#041F28"/>
<path d="M162.806 374.91C154.546 381.01 119.566 383.77 119.566 383.77C119.566 383.77 132.446 351.12 140.696 345.02C144.662 342.135 149.608 340.934 154.456 341.679C159.303 342.424 163.66 345.055 166.577 348.998C169.494 352.941 170.734 357.877 170.028 362.73C169.321 367.584 166.725 371.962 162.806 374.91V374.91Z" fill="#041F28"/>
<path d="M105.326 229.91C112.696 237.06 146.996 244.47 146.996 244.47C146.996 244.47 138.596 210.4 131.236 203.25C129.493 201.509 127.423 200.131 125.143 199.197C122.864 198.264 120.422 197.792 117.959 197.81C115.496 197.828 113.061 198.335 110.796 199.302C108.531 200.269 106.48 201.677 104.763 203.443C103.047 205.209 101.698 207.299 100.796 209.591C99.8942 211.883 99.4566 214.332 99.509 216.794C99.5613 219.257 100.102 221.684 101.101 223.936C102.099 226.187 103.536 228.218 105.326 229.91V229.91Z" fill="#041F28"/>
<path d="M85.9057 315.91C95.0757 320.54 130.026 317.34 130.026 317.34C130.026 317.34 111.816 287.34 102.646 282.72C100.461 281.563 98.0669 280.853 95.6043 280.632C93.1418 280.412 90.6599 280.684 88.304 281.435C85.9482 282.185 83.7657 283.398 81.8842 285.002C80.0027 286.606 78.4601 288.569 77.3467 290.776C76.2333 292.984 75.5714 295.391 75.3998 297.858C75.2282 300.324 75.5504 302.8 76.3474 305.141C77.1444 307.481 78.4003 309.639 80.0415 311.488C81.6828 313.338 83.6764 314.841 85.9057 315.91V315.91Z" fill="#041F28"/>
<path d="M78.4157 402.07C86.6757 408.17 121.656 410.93 121.656 410.93C121.656 410.93 108.776 378.29 100.526 372.18C96.5594 369.295 91.6136 368.094 86.7659 368.839C81.9182 369.584 77.5613 372.215 74.6446 376.158C71.7278 380.101 70.4875 385.037 71.1939 389.891C71.9002 394.744 74.496 399.122 78.4157 402.07V402.07Z" fill="#041F28"/>
<path d="M773.5 440.1C773.5 440.1 760.24 395.1 775.99 361.96C782.677 348.105 784.694 332.457 781.74 317.36C780.277 310.202 778.161 303.192 775.42 296.42" stroke="#041F28" stroke-width="2" stroke-miterlimit="10"/>
<path d="M785.22 275.48C785.22 281 775.22 297 775.22 297C775.22 297 765.22 281 765.22 275.48C765.22 272.828 766.274 270.284 768.149 268.409C770.024 266.534 772.568 265.48 775.22 265.48C777.872 265.48 780.416 266.534 782.291 268.409C784.166 270.284 785.22 272.828 785.22 275.48Z" fill="#041F28"/>
<path d="M801.73 306.04C798.73 310.67 781.65 318.67 781.65 318.67C781.65 318.67 781.96 299.81 784.96 295.18C786.456 293.086 788.701 291.649 791.229 291.168C793.757 290.687 796.373 291.199 798.533 292.598C800.693 293.997 802.231 296.175 802.826 298.678C803.422 301.182 803.029 303.819 801.73 306.04V306.04Z" fill="#041F28"/>
<path d="M801.01 358.25C796.08 360.73 777.3 359.01 777.3 359.01C777.3 359.01 787.09 342.89 792.01 340.41C794.359 339.348 797.028 339.235 799.459 340.094C801.889 340.953 803.895 342.717 805.056 345.019C806.217 347.321 806.444 349.982 805.69 352.447C804.937 354.912 803.26 356.991 801.01 358.25V358.25Z" fill="#041F28"/>
<path d="M791.56 397.64C787.13 400.92 768.33 402.4 768.33 402.4C768.33 402.4 775.25 384.86 779.69 381.58C780.737 380.714 781.95 380.071 783.255 379.689C784.559 379.308 785.927 379.196 787.276 379.361C788.625 379.526 789.926 379.964 791.1 380.649C792.274 381.334 793.296 382.25 794.104 383.343C794.911 384.436 795.488 385.682 795.798 387.005C796.108 388.328 796.145 389.701 795.907 391.039C795.669 392.377 795.161 393.652 794.413 394.787C793.666 395.922 792.695 396.893 791.56 397.64V397.64Z" fill="#041F28"/>
<path d="M760.68 319.74C764.68 323.58 783.07 327.56 783.07 327.56C783.07 327.56 778.56 309.25 774.6 305.41C773.675 304.423 772.559 303.634 771.321 303.09C770.082 302.546 768.745 302.26 767.393 302.248C766.04 302.236 764.699 302.498 763.45 303.019C762.202 303.54 761.072 304.309 760.13 305.28C759.187 306.25 758.451 307.401 757.966 308.664C757.482 309.927 757.258 311.276 757.31 312.628C757.361 313.979 757.687 315.307 758.266 316.529C758.845 317.752 759.666 318.844 760.68 319.74V319.74Z" fill="#041F28"/>
<path d="M750.22 365.94C755.15 368.42 773.93 366.71 773.93 366.71C773.93 366.71 764.14 350.59 759.21 348.1C756.861 347.038 754.192 346.925 751.761 347.784C749.331 348.643 747.326 350.407 746.164 352.709C745.003 355.01 744.776 357.672 745.53 360.137C746.283 362.602 747.96 364.681 750.21 365.94H750.22Z" fill="#041F28"/>
<path d="M746.22 412.25C750.65 415.53 769.45 417.01 769.45 417.01C769.45 417.01 762.5 399.46 758.1 396.18C755.963 394.727 753.347 394.158 750.8 394.591C748.252 395.024 745.972 396.427 744.436 398.505C742.9 400.582 742.227 403.174 742.56 405.737C742.893 408.299 744.204 410.633 746.22 412.25V412.25Z" fill="#041F28"/>
<path d="M700.5 395.84C700.898 395.84 701.279 395.682 701.561 395.401C701.842 395.119 702 394.738 702 394.34C702 393.942 701.842 393.561 701.561 393.279C701.279 392.998 700.898 392.84 700.5 392.84C700.102 392.84 699.721 392.998 699.439 393.279C699.158 393.561 699 393.942 699 394.34C699 394.738 699.158 395.119 699.439 395.401C699.721 395.682 700.102 395.84 700.5 395.84Z" fill="#535461"/>
<g opacity="0.5">
<path opacity="0.5" d="M517.03 310.01L502.5 241.61H503.99L503.76 240.45H504.18L496.66 203.45C496.66 203.45 497.04 164.8 498.87 149.85C500.21 138.94 502.33 125.04 500.78 113.34C500.994 113.017 501.191 112.684 501.37 112.34C502.012 111.096 502.399 109.736 502.51 108.34C503.07 105.07 502.631 101.707 501.25 98.6901L516.36 89.2501C516.7 89.2501 517.05 89.3201 517.36 89.3401C517.36 89.2001 517.22 88.9801 517.11 88.6901C524.258 89.0659 531.34 87.149 537.323 83.2187C543.305 79.2883 547.877 73.55 550.37 66.8401C551.7 68.8376 553.345 70.6071 555.24 72.0801C559.31 75.1301 565.72 75.8101 569.11 72.0201C570.345 70.5075 571.18 68.7093 571.54 66.7901C571.74 65.9301 571.88 65.0501 572 64.1801C573.92 53.9601 569.71 43.4201 564.28 34.4601C557.49 23.2701 548.48 13.1401 537.03 6.78008C525.58 0.420076 511.53 -1.85992 499.14 2.38008C486.75 6.62008 474.27 18.1301 473.14 31.1801C472.58 37.8501 473.38 40.9401 472 47.4901C471.31 50.7501 472.8 57.1001 472.78 60.7001C472.659 61.3612 472.579 62.0291 472.54 62.7001C472.34 66.7001 473.93 70.4801 475.09 74.3201C458.75 75.1401 415.78 78.4501 403.37 91.0701C387.93 106.76 350.07 112.37 350.07 112.37L287.02 125.06L265.02 134.4L265.27 135.4L264.83 135.59C264.83 135.59 265.61 138.5 266.73 142.34C261.822 146.782 258.609 152.791 257.64 159.34C256.42 166.13 257.07 174.87 261.37 186.02C261.37 186.02 283.08 225.89 284.58 241.97L311.98 296.66C309.63 301.35 286.15 348.75 282.11 375.28C281.79 377.19 281.573 379.117 281.46 381.05C281.46 381.05 281.31 382.45 280.94 384.78C279.33 394.61 274.24 418.78 261.81 430.08L261.97 430.22L261.61 430.57L261.89 430.81C258.16 437.94 263.55 447.6 263.55 447.6L269.68 474.98L276.54 476.09L283.76 473.15L287.76 480.84C287.76 480.84 318.91 485.84 327.76 485.55C336.61 485.26 320.26 470.26 314.53 465.81C311.35 463.35 308.86 453.24 307.28 444.73C308.114 444.053 308.863 443.278 309.51 442.42C309.51 442.42 305.7 422.42 317.17 394.98C322.06 383.3 327.32 369.87 331.77 358.3C334.16 373.84 336.67 389.85 338.52 400.78C341.21 416.61 340.86 426.27 340.03 431.72C339.876 433.621 339.428 435.487 338.7 437.25C338.737 437.301 338.77 437.355 338.8 437.41C338.748 437.552 338.684 437.689 338.61 437.82C338.67 437.92 338.73 438.01 338.78 438.11C332.52 445.27 339.04 456.95 339.04 456.95L345.17 484.25L352.03 485.36L359.25 482.42L363.25 490.11C363.25 490.11 394.4 495.11 403.25 494.82C412.1 494.53 395.75 479.53 390.01 475.08C385.54 471.61 382.44 452.98 381.29 444.99C382.12 444.91 382.58 444.85 382.58 444.85L382.49 444.3H382.68L378.76 421.38C372.06 415.61 372.99 333.64 372.99 333.64C372.99 333.64 369.5 342.21 369.39 341.52C369.73 340.14 370.99 336.24 373.91 327.93C375.625 323.165 376.894 318.25 377.7 313.25C380.87 293.74 374.96 281.81 374.96 281.81C375.35 277.89 371.22 262.66 366.34 246.44L381.67 216.56C383.802 217.362 386.116 217.553 388.35 217.11L399.96 196.11C399.96 196.11 423.96 181.81 430.83 182.92C437.22 183.92 457.24 179.54 464.98 171.2C465.537 170.591 466.045 169.939 466.5 169.25C472.73 159.7 470.17 219.11 470.17 219.11L466.84 239.69L466.66 240.83L476.59 241.03L499.99 321.29C499.99 321.29 501.46 348.51 528.05 354.56C554.64 360.61 517.03 310.01 517.03 310.01ZM357.2 217.25C355.76 212.81 354.5 208.98 353.55 206.11L358.5 202.25C358.5 202.25 359.12 202.77 360.17 203.6L357.2 217.25Z" fill="url(#paint0_linear)"/>
</g>
<path d="M381.33 436.31C381.33 436.31 384.72 464.87 390.33 469.21C395.94 473.55 411.86 488.12 403.23 488.44C394.6 488.76 364.23 483.86 364.23 483.86L360.3 476.36L353.3 479.22L346.61 478.14L340.61 451.45C340.61 451.45 332.19 436.37 344.04 430.28C355.89 424.19 381.33 436.31 381.33 436.31Z" fill="white"/>
<path opacity="0.1" d="M352.84 202.16C352.84 202.16 376.39 272.25 375.5 281.25C375.5 281.25 384.13 298.65 374.61 325.7C365.09 352.75 373.61 331.83 373.61 331.83C373.61 331.83 372.71 411.72 379.23 417.35L383.05 439.69C383.05 439.69 346.33 444.05 340.15 432.76C340.15 432.76 344.93 424.39 340.25 396.76C335.57 369.13 326.55 308.25 326.55 308.25L302.11 169.38L352.84 202.16Z" fill="black"/>
<path d="M352.93 201.6C352.93 201.6 376.48 271.73 375.59 280.73C375.59 280.73 384.22 298.13 374.7 325.18C365.18 352.23 373.7 331.31 373.7 331.31C373.7 331.31 372.8 411.21 379.32 416.83L383.14 439.18C383.14 439.18 346.42 443.53 340.24 432.24C340.24 432.24 345.02 423.87 340.34 396.24C335.66 368.61 326.63 307.7 326.63 307.7L302.2 168.82L352.93 201.6Z" fill="#041F28"/>
<path opacity="0.1" d="M308.26 172.46L332.21 308.6C332.21 308.6 341.21 369.51 345.92 397.14C350.63 424.77 345.82 433.14 345.82 433.14C347.62 436.43 351.99 438.38 357.29 439.51C349.85 438.64 343.14 436.61 340.8 432.33C340.8 432.33 345.59 423.96 340.91 396.33C336.23 368.7 327.2 307.79 327.2 307.79L302.76 168.91L308.26 172.46Z" fill="black"/>
<path d="M307.89 427.3C307.89 427.3 311.27 455.86 316.89 460.2C322.51 464.54 338.42 479.11 329.79 479.43C321.16 479.75 290.79 474.85 290.79 474.85L286.86 467.35L279.86 470.22L273.17 469.13L267.17 442.44C267.17 442.44 258.75 427.36 270.59 421.27C282.43 415.18 307.89 427.3 307.89 427.3Z" fill="white"/>
<path opacity="0.1" d="M278.21 140.36C278.21 140.36 252 150.42 266.1 187C266.1 187 287.27 225.86 288.74 241.54L315.54 295.04C315.54 295.04 286.96 351.6 285.69 377.12C285.69 377.12 281.87 411.38 266.45 425.46C266.45 425.46 299.62 453.69 311.97 437.39C311.97 437.39 308.26 417.93 319.45 391.15C330.64 364.37 343.91 328.25 343.91 328.25C343.91 328.25 376 306.56 354.62 261.94L330.62 162.59L330.23 140.23L311.82 133.83L278.21 140.36Z" fill="black"/>
<path opacity="0.1" d="M277.01 140.73C277.01 140.73 250.8 150.79 264.9 187.37C264.9 187.37 286.06 226.24 287.53 241.92L314.33 295.42C314.33 295.42 285.75 351.97 284.5 377.5C284.5 377.5 280.68 411.75 265.25 425.84C265.25 425.84 298.42 454.07 310.78 437.77C310.78 437.77 307.06 418.3 318.25 391.53C329.44 364.76 342.71 328.59 342.71 328.59C342.71 328.59 374.81 306.9 353.43 262.28L329.43 162.93L329.04 140.57L310.64 134.17L277.01 140.73Z" fill="black"/>
<path d="M277.1 140.18C277.1 140.18 250.89 150.25 264.99 186.82C264.99 186.82 280.54 215.37 285.9 233.4C288.24 241.144 291.251 248.67 294.9 255.89L314.42 294.89C314.42 294.89 285.84 351.45 284.58 376.97C284.58 376.97 280.76 411.23 265.33 425.31C265.33 425.31 298.5 453.54 310.86 437.24C310.86 437.24 307.14 417.78 318.33 391C329.52 364.22 342.79 328.06 342.79 328.06C342.79 328.06 374.89 306.37 353.51 261.75L329.51 162.4L329.12 140.04L310.72 133.64L277.1 140.18Z" fill="#041F28"/>
<path opacity="0.1" d="M277.1 140.18L310.75 133.61L315.14 135.14L283.79 141.25C283.79 141.25 257.58 151.31 271.68 187.89C271.68 187.89 287.22 216.44 292.59 234.47C294.93 242.214 297.941 249.739 301.59 256.96L321.12 295.96C321.12 295.96 292.5 352.5 291.27 378.02C291.27 378.02 287.44 412.28 272.02 426.36C272.02 426.36 286.31 438.52 299.62 442.27C284.94 441.97 265.33 425.27 265.33 425.27C280.76 411.19 284.58 376.93 284.58 376.93C285.84 351.41 314.42 294.85 314.42 294.85L294.9 255.85C291.251 248.629 288.24 241.104 285.9 233.36C280.54 215.36 264.99 186.78 264.99 186.78C250.89 150.25 277.1 140.18 277.1 140.18Z" fill="black"/>
<path d="M385.09 211.37L364.22 252.02C364.22 252.02 370.34 306.18 358.65 307.72C346.96 309.26 351.65 248.28 351.65 248.28L362.9 196.35L385.09 211.37Z" fill="#FFB8B8"/>
<path d="M499.16 237.81L514.08 308.25C514.08 308.25 550.7 357.62 524.78 351.72C498.86 345.82 497.43 319.25 497.43 319.25L472.43 233.45L499.16 237.81Z" fill="#FFB8B8"/>
<path d="M514.03 92.7L477.13 115.9L463.96 80.61C463.96 80.61 494.5 82.69 498.06 71.26C501.62 59.83 514.03 92.7 514.03 92.7Z" fill="#FFB8B8"/>
<path d="M495.08 107.37L492.72 97.26L456.35 99.39L441.7 158.2L468.99 159.18L484.27 135.35L492.6 112.11L495.08 107.37Z" fill="#BE7C5E"/>
<path opacity="0.1" d="M482.5 96.7601L485.5 79.8101C485.5 79.8101 418.19 80.6501 403.14 95.9401C388.09 111.23 351.19 116.71 351.19 116.71L289.73 129.07L268.24 138.18C268.24 138.18 274.3 160.88 276.9 162.45C279.5 164.02 308.52 140.11 308.52 140.11L319.52 143.03L283.7 180.69L349.81 245.69L351.03 209.87L359.5 203.25C359.5 203.25 379.63 220.25 388.61 217.67L399.93 197.2C399.93 197.2 423.33 183.26 430.02 184.34C436.25 185.34 455.77 181.05 463.31 172.92C463.839 172.35 464.321 171.738 464.75 171.09C470.83 161.78 468.33 219.69 468.33 219.69L464.91 240.86L501.38 241.61L494.06 205.55C494.06 205.55 494.43 167.88 496.21 153.3C497.99 138.72 501.21 118.67 494.68 106.17L481.84 118.39L459.5 154.25L467.98 123.03L482.5 96.7601Z" fill="black"/>
<path d="M482.69 95.64L479.5 78.25C479.5 78.25 418.41 79.53 403.36 94.82C388.31 110.11 351.36 115.58 351.36 115.58L289.9 127.95L268.5 137.07C268.5 137.07 274.56 159.77 277.16 161.33C279.76 162.89 308.79 139 308.79 139L319.79 141.92L283.97 179.58L350.08 244.58L351.3 208.75L359.8 202.12C359.8 202.12 379.93 219.12 388.91 216.55L400.23 196.08C400.23 196.08 423.5 182.14 430.23 183.25C436.46 184.25 455.98 179.95 463.52 171.82C464.049 171.25 464.531 170.638 464.96 169.99C471.04 160.68 468.54 218.6 468.54 218.6L465.12 239.77L501.59 240.52L494.27 204.46C494.27 204.46 494.64 166.78 496.42 152.21C498.2 137.64 501.42 117.57 494.89 105.08L482.05 117.25L459.68 153.08L468.16 121.86L482.69 95.64Z" fill="white"/>
<path opacity="0.1" d="M405.64 117.78C405.64 117.78 369.23 148.49 365.42 165.03Z" fill="black"/>
<path opacity="0.1" d="M445.39 144.25C445.39 144.25 417.39 165.45 412.39 178.93Z" fill="black"/>
<path opacity="0.1" d="M363.62 176.17C363.62 176.17 360.99 188.89 360.47 195.67Z" fill="black"/>
<path opacity="0.1" d="M350.31 205.46C350.31 205.46 308.37 167.81 302.5 168.58Z" fill="black"/>
<path opacity="0.1" d="M498.5 71.9001C501.91 60.9601 513.43 90.6201 514.4 93.1701C513.304 93.1084 512.213 92.9882 511.13 92.8101C506.756 92.1103 502.571 90.5266 498.83 88.1557C495.089 85.7848 491.87 82.6763 489.37 79.0201C493.86 77.6101 497.44 75.3801 498.5 71.9001Z" fill="black"/>
<path d="M515.91 92.5901C533.992 92.5901 548.65 77.9319 548.65 59.8501C548.65 41.7683 533.992 27.1101 515.91 27.1101C497.828 27.1101 483.17 41.7683 483.17 59.8501C483.17 77.9319 497.828 92.5901 515.91 92.5901Z" fill="#FFB8B8"/>
<path opacity="0.1" d="M542.5 64.57C545.07 68.8 547.41 73.39 551.38 76.35C555.35 79.31 561.6 79.98 564.9 76.29C566.1 74.8136 566.911 73.0603 567.26 71.19C569.68 60.88 565.45 50.19 559.96 41.1C553.34 30.19 544.55 20.32 533.4 14.1C522.25 7.88004 508.54 5.67003 496.46 9.81003C484.38 13.95 474.46 25.01 473.46 37.73C472.91 44.23 474.55 50.86 473.2 57.25C472.5 60.58 470.99 63.75 470.82 67.15C470.5 73.46 474.82 79.3301 474.43 85.6401C474.19 89.5301 472.2 93.06 470.98 96.77C467.98 105.71 469.6 115.44 468.98 124.84C468.36 134.24 464.25 144.78 455.25 147.56C465.2 152.56 478.92 147.3 482.97 136.92C484.2 133.75 484.65 130.23 486.52 127.39C489.68 122.59 496.25 120.69 498.9 115.59C501.55 110.49 499.25 104.28 496.35 99.33C493.45 94.38 489.83 89.4001 489.77 83.6701C489.791 80.8721 490.664 78.1469 492.271 75.8569C493.879 73.5669 496.146 71.8205 498.77 70.85C501.5 69.9 504.45 69.85 507.32 69.53C514.44 68.6154 521.24 66.0207 527.16 61.96C534.85 56.93 536.91 55.37 542.5 64.57Z" fill="black"/>
<path d="M542.71 63.1401C545.28 67.3801 547.62 71.9601 551.59 74.9301C555.56 77.9001 561.81 78.5601 565.11 74.8701C566.308 73.3925 567.119 71.6397 567.47 69.7701C569.89 59.4601 565.66 48.7701 560.17 39.6801C553.55 28.7601 544.76 18.9001 533.61 12.6801C522.46 6.46007 508.75 4.26007 496.67 8.39007C484.59 12.5201 472.43 23.7501 471.36 36.4701C470.81 42.9701 471.6 45.9801 470.25 52.3601C469.55 55.6901 471.18 62.3601 471.01 65.7401C470.69 72.0501 475.01 77.9201 474.62 84.2301C474.38 88.1201 472.39 91.6501 471.17 95.3501C468.17 104.3 469.79 114.03 469.17 123.43C468.55 132.83 464.44 143.36 455.44 146.14C465.39 151.14 479.11 145.88 483.16 135.5C484.39 132.34 484.84 128.82 486.71 125.98C489.87 121.18 496.44 119.28 499.09 114.18C501.74 109.08 499.44 102.86 496.55 97.9101C493.66 92.9601 490.02 87.9901 489.96 82.2501C489.983 79.4539 490.857 76.7309 492.464 74.4429C494.072 72.1548 496.337 70.41 498.96 69.4401C501.69 68.4901 504.64 68.4401 507.51 68.1201C514.629 67.201 521.428 64.6066 527.35 60.5501C535.08 55.5001 537.14 53.9501 542.71 63.1401Z" fill="#041F28"/>
<path d="M474.766 82.0925L488.655 84.3372C489.735 84.5117 490.751 83.7802 490.925 82.7034C491.099 81.6266 490.365 80.6122 489.286 80.4378L475.396 78.1931C474.316 78.0186 473.3 78.7501 473.126 79.8269C472.952 80.9037 473.686 81.9181 474.766 82.0925Z" fill="#252A62"/>
<path opacity="0.8" d="M446.14 358.45C446.37 374.11 459.58 386.45 475.24 386.45H477.42C479.346 386.444 481.197 387.19 482.58 388.53C483.629 389.512 484.358 390.788 484.67 392.19C484.819 392.755 484.893 393.336 484.89 393.92V421.57C484.88 426.887 486.4 432.094 489.27 436.57C493.446 442.911 495.709 450.319 495.79 457.91V457.91C495.79 459.682 496.143 461.437 496.828 463.071C497.513 464.705 498.517 466.187 499.782 467.429C501.046 468.671 502.545 469.648 504.191 470.304C505.838 470.96 507.598 471.282 509.37 471.25C516.69 471.12 522.43 464.82 522.43 457.49V450.58L526.07 451V457.93C526.071 459.7 526.425 461.452 527.11 463.084C527.796 464.716 528.799 466.195 530.062 467.435C531.326 468.675 532.823 469.651 534.467 470.306C536.112 470.961 537.87 471.282 539.64 471.25C546.97 471.12 552.71 464.82 552.71 457.49V453.99C556.34 455.51 576.93 455.51 582.64 453.99L584.19 453.87V457.87C584.184 459.646 584.533 461.404 585.216 463.043C585.899 464.682 586.903 466.169 588.167 467.415C589.432 468.661 590.933 469.642 592.582 470.301C594.231 470.959 595.995 471.282 597.77 471.25C605.09 471.12 610.83 464.82 610.83 457.49V451.75L612.04 451.64V457.94C612.044 459.71 612.4 461.461 613.087 463.092C613.774 464.723 614.779 466.201 616.042 467.439C617.306 468.678 618.804 469.653 620.448 470.307C622.093 470.961 623.851 471.282 625.62 471.25C628.848 471.141 631.931 469.884 634.314 467.704C636.697 465.524 638.224 462.565 638.62 459.36C638.695 458.74 638.736 458.115 638.74 457.49V428.57C638.751 418.636 635.423 408.986 629.29 401.17C628.227 399.787 627.633 398.101 627.591 396.358C627.55 394.614 628.064 392.902 629.06 391.47C635.84 381.54 645.87 364.78 645.54 352.9C645.609 349.678 644.48 346.546 642.37 344.11C642.24 343.96 642.1 343.82 641.97 343.68C632.21 333.46 615.03 341.5 616.52 355.55C617.027 360.256 616.688 365.014 615.52 369.6C614.843 372.189 613.929 374.709 612.79 377.13C611.649 379.559 609.773 381.568 607.427 382.873C605.082 384.177 602.386 384.712 599.72 384.4C597.908 384.178 596.085 384.068 594.26 384.07H538.26C534.973 384.071 531.768 383.043 529.096 381.129C526.423 379.215 524.417 376.512 523.36 373.4C522.791 371.771 522.503 370.056 522.51 368.33V324.73C522.511 323.594 522.283 322.47 521.841 321.424C521.398 320.378 520.75 319.431 519.935 318.64C519.12 317.849 518.154 317.23 517.095 316.819C516.036 316.409 514.905 316.215 513.77 316.25C512.662 316.29 511.573 316.552 510.568 317.021C509.563 317.49 508.663 318.156 507.92 318.98C506.404 320.65 505.563 322.824 505.56 325.08C505.561 325.67 505.446 326.255 505.221 326.8C504.996 327.345 504.665 327.841 504.248 328.258C503.831 328.675 503.335 329.006 502.79 329.231C502.244 329.456 501.66 329.571 501.07 329.57H474.6C470.827 329.57 467.092 330.32 463.611 331.776C460.13 333.232 456.974 335.366 454.326 338.054C451.678 340.741 449.59 343.928 448.185 347.43C446.779 350.931 446.084 354.677 446.14 358.45V358.45Z" fill="#F3AD55"/>
<path d="M612.5 461.25C613.25 464.153 614.957 466.719 617.345 468.534C619.732 470.348 622.662 471.305 625.66 471.25C628.888 471.141 631.971 469.883 634.354 467.704C636.737 465.524 638.264 462.565 638.66 459.36C630.5 457.19 619.32 455.69 612.5 461.25Z" fill="#FBDCA3"/>
<path d="M584.6 461.25C585.352 464.154 587.061 466.72 589.45 468.535C591.84 470.349 594.77 471.305 597.77 471.25C600.988 471.129 604.058 469.866 606.429 467.687C608.8 465.508 610.318 462.556 610.71 459.36C602.65 457.19 591.5 455.69 584.6 461.25Z" fill="#FBDCA3"/>
<path d="M526.5 461.25C527.25 464.153 528.957 466.719 531.345 468.534C533.732 470.348 536.662 471.305 539.66 471.25C542.888 471.141 545.971 469.883 548.354 467.704C550.737 465.524 552.264 462.565 552.66 459.36C544.5 457.19 533.34 455.69 526.5 461.25Z" fill="#FBDCA3"/>
<path d="M496.2 461.25C496.951 464.155 498.659 466.722 501.049 468.537C503.438 470.351 506.37 471.307 509.37 471.25C512.588 471.129 515.658 469.866 518.029 467.687C520.4 465.508 521.918 462.556 522.31 459.36C514.25 457.19 503.07 455.69 496.2 461.25Z" fill="#FBDCA3"/>
<path d="M615.44 369.6C624.85 365.82 636.33 358.9 645.44 352.9C645.509 349.678 644.38 346.546 642.27 344.11C642.14 343.96 642 343.82 641.87 343.68C632.11 333.46 614.93 341.5 616.42 355.55C616.933 360.254 616.601 365.012 615.44 369.6V369.6Z" fill="#FBDCA3"/>
<path d="M604.05 384.15C604.05 384.15 578.14 416.77 535.75 384.07Z" fill="#FBDCA3"/>
<path d="M522.43 323.52C522.43 323.52 506.69 344.11 522.43 369.52Z" fill="#FBDCA3"/>
<path d="M484.89 393.76C484.89 393.76 498.76 410.98 485.07 424.68Z" fill="#FBDCA3"/>
<path opacity="0.1" d="M483.68 390.12C484.68 391.12 484.36 392.02 484.68 393.44L529.68 381.65C527.26 379.78 524.25 377.57 523.26 374.65C517.88 378.8 507.21 385.82 483.68 390.12Z" fill="black"/>
<path d="M482.58 388.57C483.629 389.552 484.358 390.827 484.67 392.23L528.56 380.79C526.11 378.901 524.273 376.33 523.28 373.4C517.88 377.59 506.11 384.25 482.58 388.57Z" fill="#383F4D"/>
<path opacity="0.1" d="M521.63 375.82C521.63 375.82 507.9 386.15 484.89 389.35Z" fill="black"/>
<path d="M521.63 374.61C521.63 374.61 507.9 384.94 484.89 388.14Z" fill="#F3AD55"/>
<path opacity="0.1" d="M487.31 375.59C487.31 375.59 464.31 382.86 458.25 359.85L487.31 375.59Z" fill="black"/>
<path d="M487.31 374.38C487.31 374.38 464.31 381.65 458.25 358.64L487.31 374.38Z" fill="#FBDCA3"/>
<path d="M446.14 359.85C447.477 359.85 448.56 357.952 448.56 355.61C448.56 353.268 447.477 351.37 446.14 351.37C444.803 351.37 443.72 353.268 443.72 355.61C443.72 357.952 444.803 359.85 446.14 359.85Z" fill="#383F4D"/>
<path opacity="0.1" d="M629.6 442.8L624.76 404.05C624.76 404.05 639.29 427.05 629.6 442.8Z" fill="black"/>
<path d="M623.55 404.05C623.55 404.05 638.08 427.05 628.39 442.8L623.55 404.05Z" fill="#FBDCA3"/>
<defs>
<linearGradient id="paint0_linear" x1="248.536" y1="215.777" x2="551.357" y2="264.715" gradientUnits="userSpaceOnUse">
<stop stop-color="#808080" stop-opacity="0.25"/>
<stop offset="0.54" stop-color="#808080" stop-opacity="0.12"/>
<stop offset="1" stop-color="#808080" stop-opacity="0.1"/>
</linearGradient>
</defs>
</svg>
