<svg width="1795" height="5136" viewBox="0 0 1795 5136" fill="none" xmlns="http://www.w3.org/2000/svg">
<g clip-path="url(#clip0)">
<rect width="1795" height="5136" fill="#C0E3E7" fill-opacity="0.2"/>
<rect x="1944.03" y="2274.45" width="2360.86" height="1147.68" transform="rotate(-105 1944.03 2274.45)" fill="#C0E3E7" fill-opacity="0.8"/>
<rect x="1263" y="4844.38" width="2360.86" height="1147.68" transform="rotate(-45 1263 4844.38)" fill="#C0E3E7" fill-opacity="0.8"/>
<path opacity="0.3" d="M-159.453 81.9595C-160.441 68.8608 -143.594 62.729 -135.931 73.3982L302.412 683.703C307.436 690.698 304.392 700.557 296.299 703.502L-85.5369 842.479C-93.6301 845.425 -102.299 839.829 -102.946 831.241L-159.453 81.9595Z" fill="#041F28"/>
<path opacity="0.3" d="M1102.2 1691.14C1106.15 1683.58 1116.18 1681.81 1122.48 1687.56L2322.84 2782.93C2330.81 2790.21 2326.96 2803.46 2316.34 2805.34L362.644 3149.83C352.017 3151.7 343.866 3140.56 348.868 3131L1102.2 1691.14Z" fill="#041F28"/>
</g>
<defs>
<clipPath id="clip0">
<rect width="1795" height="5136" fill="white"/>
</clipPath>
</defs>
</svg>
