<svg version="1.0" xmlns="http://www.w3.org/2000/svg" viewBox="0 0 100.000000 100.000000"
 preserveAspectRatio="xMidYMid meet">
<g transform="translate(0.000000,100.000000) scale(0.100000,-0.100000)"
fill="#000000" stroke="none">
<path d="M320 500 c0 -393 0 -400 20 -400 20 0 20 7 20 400 0 393 0 400 -20
400 -20 0 -20 -7 -20 -400z"/>
<path d="M400 500 c0 -393 0 -400 20 -400 20 0 20 7 20 400 0 393 0 400 -20
400 -20 0 -20 -7 -20 -400z"/>
<path d="M480 500 c0 -393 0 -400 20 -400 20 0 20 7 20 400 0 393 0 400 -20
400 -20 0 -20 -7 -20 -400z"/>
<path d="M560 500 c0 -393 0 -400 20 -400 20 0 20 7 20 400 0 393 0 400 -20
400 -20 0 -20 -7 -20 -400z"/>
<path d="M640 500 c0 -393 0 -400 20 -400 20 0 20 7 20 400 0 393 0 400 -20
400 -20 0 -20 -7 -20 -400z"/>
<path d="M122 849 l-42 -31 0 -69 c0 -52 -3 -69 -14 -69 -7 0 -25 -9 -40 -21
-26 -20 -26 -21 -26 -159 0 -138 0 -139 26 -159 15 -12 33 -21 40 -21 11 0 14
-17 14 -69 l0 -69 42 -31 c35 -26 51 -31 100 -31 l58 0 0 380 0 380 -58 0
c-49 0 -65 -5 -100 -31z"/>
<path d="M720 500 l0 -380 58 0 c49 0 65 5 100 31 l42 31 0 69 c0 52 3 69 14
69 7 0 25 9 40 21 26 20 26 21 26 159 0 138 0 139 -26 159 -15 12 -33 21 -40
21 -11 0 -14 17 -14 69 l0 69 -42 31 c-35 26 -51 31 -100 31 l-58 0 0 -380z"/>
</g>
</svg>
