<svg version="1.0" xmlns="http://www.w3.org/2000/svg" viewBox="0 0 100.000000 100.000000"
 preserveAspectRatio="xMidYMid meet">
<g transform="translate(0.000000,100.000000) scale(0.100000,-0.100000)"
fill="#000000" stroke="none">
<path d="M796 993 c-3 -3 -1 -14 5 -24 7 -15 6 -17 -6 -13 -25 10 -47 -3 -37
-22 13 -24 -20 -82 -83 -144 -44 -44 -62 -55 -88 -55 -31 0 -34 -5 -23 -35 4
-10 -25 -46 -88 -109 -93 -93 -94 -94 -127 -82 -42 15 -131 14 -183 -1 -55
-16 -138 -99 -154 -154 -15 -52 -15 -135 0 -185 29 -98 134 -169 248 -169 152
0 259 106 260 256 0 34 -5 76 -11 94 l-12 32 174 175 c170 171 220 208 268
204 20 -2 23 1 19 21 -4 21 -1 24 18 20 21 -4 22 0 23 59 1 60 -1 66 -36 101
-35 36 -40 38 -99 37 -35 -1 -65 -4 -68 -6z m129 -73 c16 -16 25 -33 22 -37
-4 -3 -7 -1 -7 5 0 22 -24 12 -62 -25 -38 -37 -48 -62 -25 -64 7 0 6 -3 -3 -6
-8 -3 -134 -124 -280 -269 l-266 -265 -22 23 -21 24 264 264 c146 146 265 272
266 280 0 10 2 11 6 3 8 -21 25 -15 65 24 39 38 47 58 26 66 -7 3 -8 6 -2 6 5
1 23 -12 39 -29z"/>
</g>
</svg>
