<svg version="1.0" xmlns="http://www.w3.org/2000/svg" viewBox="0 0 100.000000 100.000000"
 preserveAspectRatio="xMidYMid meet">
<g transform="translate(0.000000,100.000000) scale(0.100000,-0.100000)"
fill="#000000" stroke="none">
<path d="M162 937 c-16 -17 -22 -36 -22 -68 0 -48 13 -69 42 -69 15 0 17 8 15
53 -2 51 -1 52 27 55 67 8 61 -50 -28 -270 -93 -230 -116 -305 -116 -379 0
-96 36 -161 112 -200 34 -17 61 -19 308 -19 247 0 274 2 308 19 76 39 112 104
112 200 0 74 -23 149 -116 379 -89 220 -95 278 -28 270 28 -3 29 -4 27 -55 -2
-45 0 -53 15 -53 29 0 42 21 42 70 0 61 -28 90 -89 90 -49 0 -91 -34 -91 -75
0 -21 -5 -25 -30 -25 -23 0 -30 4 -30 20 0 19 -7 20 -120 20 -113 0 -120 -1
-120 -20 0 -16 -7 -20 -30 -20 -25 0 -30 4 -30 25 0 67 -110 103 -158 52z
m218 -137 c0 -19 7 -20 120 -20 113 0 120 1 120 20 0 15 7 20 29 20 29 0 30
-1 56 -112 53 -227 85 -390 85 -433 0 -56 -30 -93 -85 -105 -52 -12 -358 -12
-410 0 -55 13 -85 49 -85 106 0 45 25 170 81 412 31 132 31 132 60 132 22 0
29 -5 29 -20z"/>
<path d="M340 660 l0 -60 160 0 160 0 0 60 0 60 -160 0 -160 0 0 -60z"/>
<path d="M300 480 l0 -60 200 0 200 0 0 60 0 60 -200 0 -200 0 0 -60z"/>
<path d="M260 300 l0 -60 240 0 240 0 0 60 0 60 -240 0 -240 0 0 -60z"/>
</g>
</svg>
