<svg version="1.0" xmlns="http://www.w3.org/2000/svg" viewBox="0 0 100.000000 100.000000"
 preserveAspectRatio="xMidYMid meet">
<g transform="translate(0.000000,100.000000) scale(0.100000,-0.100000)"
fill="#000000" stroke="none">
<path d="M930 974 c-39 -40 -59 -48 -79 -30 -25 22 -62 20 -68 -3 -3 -12 -15
-21 -32 -23 -20 -2 -27 -9 -29 -30 -3 -22 2 -29 23 -34 33 -8 29 -19 -28 -67
l-46 -39 -33 23 c-24 18 -50 25 -98 27 -63 4 -67 3 -137 -44 -69 -45 -88 -73
-63 -89 21 -13 8 -46 -33 -90 -49 -50 -88 -59 -109 -25 -20 32 -45 24 -105
-32 -74 -70 -93 -110 -93 -193 0 -69 21 -127 63 -173 l21 -22 -22 -30 c-12
-17 -32 -43 -44 -60 -28 -38 -16 -50 22 -22 17 12 43 32 59 43 l29 21 34 -25
c79 -61 184 -75 265 -36 47 23 143 121 143 147 0 10 -9 23 -20 30 -32 20 -25
57 22 108 42 45 43 46 90 40 l47 -7 43 63 c36 54 43 72 46 123 3 49 -1 68 -21
106 l-25 46 64 72 65 73 10 -32 c9 -26 16 -31 38 -28 20 2 27 9 29 29 2 17 11
29 23 32 25 7 25 48 -1 72 l-20 18 22 24 c18 19 20 28 12 41 -17 26 -38 25
-64 -4z m-230 -333 c-16 -20 -55 -64 -87 -99 l-58 -64 -38 40 -38 39 97 86 98
87 28 -27 27 -26 -29 -36z m-393 -386 c-14 -11 -59 -51 -101 -89 -71 -64 -78
-68 -93 -53 -15 15 -11 22 53 92 38 42 77 88 88 102 l19 24 29 -28 29 -28 -24
-20z"/>
</g>
</svg>
