<svg width="905" height="710" viewBox="0 0 905 710" fill="none" xmlns="http://www.w3.org/2000/svg">
<path d="M858.405 667.168L897.559 612.096L858.325 673.201L858.239 679.51C855.487 679.46 852.763 679.343 850.068 679.16C850.07 677.727 854.14 598.93 854.015 597.502C854.206 597.45 854.387 590.05 854.465 589.726L814.747 528.718L854.566 583.991L854.67 585.614L857.678 524.392L823.643 461.327L858.06 513.633C858.082 512.8 860.981 387.065 861.005 386.289C861.011 386.701 860.766 486.37 860.767 486.79L894.32 447.007L860.649 495.41L859.931 550.223L891.226 497.524C852.058 574.442 860.826 547.476 859.432 588.76L904.858 515.4L859.287 599.393L858.405 667.168Z" fill="#041F28"/>
<path opacity="0.1" d="M449.5 710C697.752 710 899 700.598 899 689C899 677.402 697.752 668 449.5 668C201.248 668 0 677.402 0 689C0 700.598 201.248 710 449.5 710Z" fill="#252223"/>
<path d="M512.219 7.62191V326.654C512.219 331.274 510.383 335.706 507.116 338.973C503.849 342.24 499.418 344.075 494.797 344.075C490.177 344.075 485.746 342.24 482.478 338.973C479.211 335.706 477.376 331.274 477.376 326.654V7.62191C477.376 -2.00352 485.172 5.44422 494.797 5.44422C499.61 5.44422 499.262 0.11975 502.419 3.26653C505.566 6.42414 512.219 2.80917 512.219 7.62191Z" fill="#A0616A"/>
<path opacity="0.1" d="M512.219 15.7883H477.376V28.8545H512.219V15.7883Z" fill="black"/>
<path opacity="0.1" d="M512.219 57.1646H477.376V70.2307H512.219V57.1646Z" fill="black"/>
<path opacity="0.1" d="M512.219 98.5405H477.376V111.607H512.219V98.5405Z" fill="black"/>
<path opacity="0.1" d="M512.219 139.917H477.376V152.983H512.219V139.917Z" fill="black"/>
<path opacity="0.1" d="M512.219 181.293H477.376V194.359H512.219V181.293Z" fill="black"/>
<path opacity="0.1" d="M512.219 222.669H477.376V235.735H512.219V222.669Z" fill="black"/>
<path opacity="0.1" d="M512.219 264.045H477.376V277.111H512.219V264.045Z" fill="black"/>
<path opacity="0.1" d="M512.219 305.421H477.376V318.488H512.219V305.421Z" fill="black"/>
<path d="M494.797 10.8885C504.419 10.8885 512.219 8.451 512.219 5.44423C512.219 2.43746 504.419 0 494.797 0C485.176 0 477.376 2.43746 477.376 5.44423C477.376 8.451 485.176 10.8885 494.797 10.8885Z" fill="#A0616A"/>
<path opacity="0.1" d="M494.797 10.8885C504.419 10.8885 512.219 8.451 512.219 5.44423C512.219 2.43746 504.419 0 494.797 0C485.176 0 477.376 2.43746 477.376 5.44423C477.376 8.451 485.176 10.8885 494.797 10.8885Z" fill="black"/>
<path d="M675.478 75.3474L473.604 322.386C472.156 324.158 470.374 325.628 468.358 326.711C466.343 327.794 464.134 328.47 461.857 328.699C459.58 328.928 457.281 328.707 455.09 328.047C452.899 327.388 450.859 326.303 449.087 324.855C447.316 323.407 445.846 321.625 444.764 319.609C443.681 317.593 443.006 315.384 442.777 313.107C442.548 310.831 442.77 308.531 443.43 306.34C444.09 304.149 445.175 302.11 446.624 300.338L648.498 53.2997C654.589 45.8463 655.913 56.5466 663.366 62.6373C667.093 65.6826 670.192 61.3391 670.646 65.7739C671.085 70.2102 678.524 71.6207 675.478 75.3474Z" fill="#A0616A"/>
<path opacity="0.1" d="M643.33 59.6231L635.062 69.7407L662.043 91.7884L670.311 81.6708L643.33 59.6231Z" fill="black"/>
<path opacity="0.1" d="M617.149 91.6623L608.881 101.78L635.861 123.828L644.129 113.71L617.149 91.6623Z" fill="black"/>
<path opacity="0.1" d="M590.967 123.701L582.699 133.819L609.68 155.867L617.947 145.749L590.967 123.701Z" fill="black"/>
<path opacity="0.1" d="M564.785 155.741L556.518 165.858L583.498 187.906L591.766 177.788L564.785 155.741Z" fill="black"/>
<path opacity="0.1" d="M538.604 187.78L530.336 197.897L557.316 219.945L565.584 209.828L538.604 187.78Z" fill="black"/>
<path opacity="0.1" d="M512.422 219.819L504.154 229.937L531.135 251.984L539.403 241.867L512.422 219.819Z" fill="black"/>
<path opacity="0.1" d="M486.24 251.856L477.972 261.974L504.953 284.022L513.22 273.904L486.24 251.856Z" fill="black"/>
<path opacity="0.1" d="M460.059 283.897L451.791 294.015L478.771 316.062L487.039 305.945L460.059 283.897Z" fill="black"/>
<path d="M676.856 73.6612C678.759 71.3329 674.261 64.5099 666.811 58.4216C659.361 52.3333 651.778 49.2852 649.876 51.6134C647.973 53.9417 652.471 60.7647 659.921 66.853C667.372 72.9413 674.954 75.9894 676.856 73.6612Z" fill="#A0616A"/>
<path opacity="0.1" d="M676.856 73.6612C678.759 71.3329 674.261 64.5099 666.811 58.4216C659.361 52.3333 651.778 49.2852 649.876 51.6134C647.973 53.9417 652.471 60.7647 659.921 66.853C667.372 72.9413 674.954 75.9894 676.856 73.6612Z" fill="black"/>
<path d="M673.822 371.297H627.197L627.539 362.575L629.542 311.051L630.544 285.452H305.883L306.394 298.551L307.723 332.708L310.249 397.527L311.937 440.678L314.114 496.492L315.965 544.162L316.499 557.87L316.51 558.034L316.771 564.861L317.446 581.966L317.511 583.872L317.969 595.479L318.045 597.57L318.709 614.436L319.297 629.636L319.504 634.884L319.602 637.269L319.689 639.577C319.678 647.412 321.202 655.173 324.175 662.421C324.955 664.34 325.839 666.216 326.821 668.04C333.998 681.436 345.961 691.634 360.325 696.6C362.221 697.264 364.151 697.828 366.107 698.288C370.669 699.372 375.343 699.917 380.033 699.91H556.383C565.253 699.923 574.017 697.975 582.047 694.205C590.985 689.977 598.759 683.635 604.695 675.727C607.216 672.374 609.377 668.765 611.141 664.958C611.282 664.654 611.424 664.349 611.544 664.044C614.546 657.317 616.274 650.092 616.639 642.735C616.694 641.69 616.726 640.634 616.726 639.577L617.293 625.041L617.99 607.195L618.055 605.42L618.777 586.888H673.822C693.332 586.866 712.037 579.106 725.832 565.311C739.628 551.515 747.388 532.811 747.41 513.301V444.884C747.388 425.374 739.628 406.67 725.832 392.874C712.037 379.079 693.332 371.318 673.822 371.297V371.297ZM703.856 513.301C703.847 521.263 700.68 528.897 695.049 534.528C689.419 540.158 681.785 543.325 673.822 543.334H620.486L620.494 543.138L620.995 530.268L621.376 520.447L623.532 465.199L625.494 414.85H673.822C681.785 414.86 689.419 418.027 695.049 423.657C700.68 429.288 703.847 436.921 703.856 444.884L703.856 513.301Z" fill="#041F28"/>
<path d="M383.989 85.7773C403.446 85.7773 419.22 70.0036 419.22 50.5456C419.22 31.0877 403.446 15.314 383.989 15.314C364.531 15.314 348.757 31.0877 348.757 50.5456C348.757 70.0036 364.531 85.7773 383.989 85.7773Z" fill="white"/>
<path d="M406.112 169.286C432.834 169.286 454.497 147.623 454.497 120.901C454.497 94.1785 432.834 72.5159 406.112 72.5159C379.39 72.5159 357.727 94.1785 357.727 120.901C357.727 147.623 379.39 169.286 406.112 169.286Z" fill="white"/>
<path d="M420.355 66.6863L364.749 84.1721C364.338 84.3013 363.996 84.5884 363.796 84.9702C363.597 85.352 363.558 85.7974 363.687 86.2082L364.686 89.3839C364.75 89.5873 364.853 89.7761 364.99 89.9396C365.127 90.103 365.295 90.2379 365.484 90.3365C365.673 90.4351 365.88 90.4955 366.092 90.5143C366.304 90.533 366.518 90.5098 366.722 90.4458L376.173 87.4739L377.444 88.1L382.379 133.693L390.2 139.201L384.872 91.7585L420.72 109.413L428.363 105.532L385.767 84.4568L422.328 72.9601C422.531 72.8961 422.72 72.7927 422.883 72.6558C423.047 72.5188 423.182 72.351 423.28 72.1619C423.379 71.9729 423.439 71.7662 423.458 71.5538C423.477 71.3414 423.454 71.1274 423.39 70.924L422.391 67.7483C422.327 67.5449 422.224 67.356 422.087 67.1926C421.95 67.0291 421.782 66.8942 421.593 66.7956C421.404 66.697 421.197 66.6366 420.985 66.6179C420.772 66.5991 420.558 66.6224 420.355 66.6863V66.6863Z" fill="#041F28"/>
<path d="M360.546 39.6973C360.546 39.6973 372.681 27.97 371.872 25.3987C371.064 22.8275 362.981 16.8926 352.696 20.1267C352.696 20.1267 348.67 16.3071 346.716 20.8771C344.763 25.447 350.199 26.5629 350.199 26.5629C350.199 26.5629 347.453 37.5982 357.46 40.6675L360.546 39.6973Z" fill="#041F28"/>
<path d="M369.327 50.588C370.884 50.588 372.146 49.3261 372.146 47.7695C372.146 46.2128 370.884 44.9509 369.327 44.9509C367.771 44.9509 366.509 46.2128 366.509 47.7695C366.509 49.3261 367.771 50.588 369.327 50.588Z" fill="#3F3D56"/>
<path d="M394.422 42.6966C395.979 42.6966 397.241 41.4347 397.241 39.8781C397.241 38.3215 395.979 37.0596 394.422 37.0596C392.866 37.0596 391.604 38.3215 391.604 39.8781C391.604 41.4347 392.866 42.6966 394.422 42.6966Z" fill="#3F3D56"/>
<path d="M386.171 48.8745L381.242 50.4246L386.033 65.6607L390.963 64.1106L386.171 48.8745Z" fill="#FF6584"/>
<path d="M401.795 106.857C403.351 106.857 404.613 105.595 404.613 104.038C404.613 102.482 403.351 101.22 401.795 101.22C400.238 101.22 398.976 102.482 398.976 104.038C398.976 105.595 400.238 106.857 401.795 106.857Z" fill="#3F3D56"/>
<path d="M404.895 116.716C406.451 116.716 407.713 115.454 407.713 113.897C407.713 112.341 406.451 111.079 404.895 111.079C403.338 111.079 402.076 112.341 402.076 113.897C402.076 115.454 403.338 116.716 404.895 116.716Z" fill="#3F3D56"/>
<path d="M407.995 126.574C409.552 126.574 410.813 125.312 410.813 123.756C410.813 122.199 409.552 120.937 407.995 120.937C406.438 120.937 405.176 122.199 405.176 123.756C405.176 125.312 406.438 126.574 407.995 126.574Z" fill="#3F3D56"/>
<path d="M390.258 70.4837C385.77 71.8365 381.015 72.0433 376.426 71.0852L376.602 70.1624C381.033 71.1426 385.645 70.942 389.974 69.5805C394.304 68.2191 398.2 65.7446 401.273 62.4045L401.945 63.0605C398.731 66.4723 394.713 69.0244 390.258 70.4837V70.4837Z" fill="#3F3D56"/>
<path d="M404.129 48.0386C405.426 48.0386 406.477 46.987 406.477 45.6898C406.477 44.3927 405.426 43.3411 404.129 43.3411C402.831 43.3411 401.78 44.3927 401.78 45.6898C401.78 46.987 402.831 48.0386 404.129 48.0386Z" fill="#FF6584"/>
<path d="M364.694 60.439C365.991 60.439 367.043 59.3874 367.043 58.0902C367.043 56.793 365.991 55.7415 364.694 55.7415C363.397 55.7415 362.345 56.793 362.345 58.0902C362.345 59.3874 363.397 60.439 364.694 60.439Z" fill="#FF6584"/>
<path d="M513.246 419.904C516.3 419.904 518.776 417.428 518.776 414.374C518.776 411.319 516.3 408.843 513.246 408.843C510.192 408.843 507.716 411.319 507.716 414.374C507.716 417.428 510.192 419.904 513.246 419.904Z" fill="#D0CDE1"/>
<path d="M530.667 511.367C533.722 511.367 536.197 508.891 536.197 505.837C536.197 502.782 533.722 500.306 530.667 500.306C527.613 500.306 525.137 502.782 525.137 505.837C525.137 508.891 527.613 511.367 530.667 511.367Z" fill="#D0CDE1"/>
<path d="M421.783 534.233C424.837 534.233 427.313 531.757 427.313 528.702C427.313 525.648 424.837 523.172 421.783 523.172C418.728 523.172 416.252 525.648 416.252 528.702C416.252 531.757 418.728 534.233 421.783 534.233Z" fill="#D0CDE1"/>
<path d="M477.314 638.762C480.368 638.762 482.844 636.286 482.844 633.232C482.844 630.177 480.368 627.701 477.314 627.701C474.26 627.701 471.784 630.177 471.784 633.232C471.784 636.286 474.26 638.762 477.314 638.762Z" fill="#D0CDE1"/>
<path d="M353.185 554.921C356.24 554.921 358.715 552.445 358.715 549.391C358.715 546.336 356.24 543.86 353.185 543.86C350.131 543.86 347.655 546.336 347.655 549.391C347.655 552.445 350.131 554.921 353.185 554.921Z" fill="#D0CDE1"/>
<path d="M348.83 448.214C351.884 448.214 354.36 445.738 354.36 442.684C354.36 439.629 351.884 437.153 348.83 437.153C345.776 437.153 343.3 439.629 343.3 442.684C343.3 445.738 345.776 448.214 348.83 448.214Z" fill="#D0CDE1"/>
<path d="M578.577 405.749C581.631 405.749 584.107 403.273 584.107 400.219C584.107 397.164 581.631 394.688 578.577 394.688C575.522 394.688 573.046 397.164 573.046 400.219C573.046 403.273 575.522 405.749 578.577 405.749Z" fill="#D0CDE1"/>
<path d="M405.45 633.318C408.504 633.318 410.98 630.842 410.98 627.787C410.98 624.733 408.504 622.257 405.45 622.257C402.396 622.257 399.92 624.733 399.92 627.787C399.92 630.842 402.396 633.318 405.45 633.318Z" fill="#D0CDE1"/>
<path d="M378.229 382.672C382.369 382.672 385.726 379.316 385.726 375.175C385.726 371.035 382.369 367.678 378.229 367.678C374.088 367.678 370.732 371.035 370.732 375.175C370.732 379.316 374.088 382.672 378.229 382.672Z" fill="#D0CDE1"/>
<path d="M452.27 461.069C456.411 461.069 459.767 457.713 459.767 453.572C459.767 449.432 456.411 446.075 452.27 446.075C448.13 446.075 444.773 449.432 444.773 453.572C444.773 457.713 448.13 461.069 452.27 461.069Z" fill="#D0CDE1"/>
<path d="M548.089 618.952C552.229 618.952 555.586 615.595 555.586 611.455C555.586 607.314 552.229 603.958 548.089 603.958C543.948 603.958 540.592 607.314 540.592 611.455C540.592 615.595 543.948 618.952 548.089 618.952Z" fill="#D0CDE1"/>
<path d="M468.209 305.183C558.062 305.183 630.903 296.348 630.903 285.451C630.903 274.553 558.062 265.719 468.209 265.719C378.355 265.719 305.515 274.553 305.515 285.451C305.515 296.348 378.355 305.183 468.209 305.183Z" fill="#A0616A"/>
<path d="M472.243 81.2191C472.243 81.2191 477.252 120.324 428.884 133.451C380.516 146.578 368.06 174.946 368.06 174.946C368.06 174.946 316.331 189.139 347.983 221.271C347.983 221.271 274.535 271.951 346.275 292.843C418.014 313.735 611.821 299.597 603.697 260C603.697 260 613.777 241.634 590.411 237.949C590.411 237.949 622.95 193.59 540.798 167.863C540.798 167.863 554.159 154.005 518.415 157.947C518.415 157.947 540.697 67.2688 472.243 81.2191Z" fill="white"/>
<path d="M367.223 177.178L367.094 174.027C424.574 171.67 456.137 153.74 472.495 139.114C490.166 123.312 494.375 107.862 494.415 107.707L497.468 108.501C497.297 109.162 493.063 124.871 474.784 141.297C458.045 156.34 425.796 174.776 367.223 177.178Z" fill="#A0616A"/>
<path d="M347.431 223.465L346.731 220.389C346.979 220.333 372.401 214.559 442.52 200.359C490.518 190.639 502.018 180.65 504.601 175.561C505.132 174.712 505.337 173.699 505.179 172.71L508.044 171.39C508.152 171.624 509.049 173.767 507.413 176.989C503.943 183.826 489.976 193.966 443.146 203.45C373.076 217.64 347.68 223.408 347.431 223.465Z" fill="#A0616A"/>
<path d="M379.207 236.452C378.909 236.452 378.691 236.452 378.557 236.451L378.574 233.297C379.666 233.311 493.982 233.454 529.163 195.636C536.639 187.6 540.025 178.296 539.225 167.984L542.37 167.741C543.24 178.969 539.573 189.077 531.471 197.786C496.366 235.519 389.54 236.452 379.207 236.452Z" fill="#A0616A"/>
<path d="M513.098 275.205C512.997 275.205 512.937 275.204 512.921 275.204L512.967 272.05C513.502 272.045 568.064 272.408 589.056 237.142L591.767 238.756C570.45 274.567 516.618 275.205 513.098 275.205Z" fill="#A0616A"/>
<path d="M479.865 79.0414C479.865 79.0414 484.874 118.147 436.506 131.273C388.138 144.4 375.682 172.769 375.682 172.769C375.682 172.769 323.953 186.962 355.605 219.093C355.605 219.093 282.157 269.773 353.897 290.665C425.636 311.557 619.443 297.419 611.319 257.822C611.319 257.822 621.399 239.456 598.033 235.771C598.033 235.771 630.572 191.412 548.42 165.685C548.42 165.685 561.781 151.827 526.036 155.769C526.036 155.769 548.319 65.091 479.865 79.0414Z" fill="white"/>
<path d="M374.845 175L374.716 171.849C432.196 169.492 463.759 151.562 480.117 136.936C497.788 121.134 501.997 105.684 502.037 105.529L505.09 106.323C504.919 106.984 500.685 122.693 482.406 139.12C465.667 154.163 433.418 172.598 374.845 175Z" fill="#A0616A"/>
<path d="M355.053 221.287L354.353 218.212C354.601 218.155 380.023 212.381 450.142 198.181C498.14 188.461 509.64 178.473 512.223 173.384C512.754 172.534 512.959 171.521 512.801 170.532L515.666 169.213C515.773 169.447 516.671 171.59 515.035 174.811C511.565 181.648 497.598 191.789 450.768 201.272C380.698 215.463 355.302 221.23 355.053 221.287Z" fill="#A0616A"/>
<path d="M386.829 234.275C386.531 234.275 386.313 234.274 386.179 234.273L386.196 231.119C387.289 231.133 501.604 231.276 536.785 193.459C544.261 185.422 547.647 176.119 546.847 165.807L549.992 165.563C550.862 176.791 547.195 186.9 539.093 195.608C503.988 233.341 397.162 234.275 386.829 234.275Z" fill="#A0616A"/>
<path d="M520.72 273.027C520.618 273.027 520.559 273.026 520.543 273.026L520.588 269.872C521.124 269.867 575.686 270.23 596.678 234.965L599.388 236.579C578.072 272.39 524.24 273.027 520.72 273.027Z" fill="#A0616A"/>
<path d="M119.059 303.159C128.449 303.159 136.061 295.547 136.061 286.157C136.061 276.767 128.449 269.155 119.059 269.155C109.669 269.155 102.057 276.767 102.057 286.157C102.057 295.547 109.669 303.159 119.059 303.159Z" fill="#041F28"/>
<path d="M136.037 279.244L125.395 276.636C121.333 276.636 117.322 275.733 113.651 273.992C109.981 272.252 106.744 269.717 104.174 266.571C101.603 263.426 99.7645 259.748 98.7901 255.805C97.8157 251.861 97.7302 247.75 98.5397 243.77C98.5397 239.066 99.4662 234.408 101.266 230.062C103.067 225.716 105.705 221.767 109.031 218.441C112.358 215.114 116.306 212.476 120.652 210.676C124.998 208.876 129.656 207.949 134.36 207.949H134.36C139.064 207.949 143.722 208.876 148.068 210.676C152.414 212.476 156.363 215.114 159.689 218.441C163.016 221.767 165.654 225.716 167.454 230.062C169.254 234.408 170.181 239.066 170.181 243.77V243.77C171.552 248.563 171.64 253.632 170.436 258.47C169.232 263.308 166.779 267.745 163.322 271.337C159.865 274.929 155.525 277.55 150.736 278.937C145.948 280.325 140.879 280.431 136.037 279.244V279.244Z" fill="#041F28"/>
<path d="M67.5879 388.206L93.8959 350.764L108.178 377.286L91.8559 396.328L67.5879 388.206Z" fill="white"/>
<path d="M81.3148 384.427C81.3148 384.427 73.154 381.027 68.3935 387.147C63.633 393.268 55.4722 406.189 58.1925 408.229C60.9128 410.27 69.7537 402.109 69.7537 402.109L81.3148 384.427Z" fill="white"/>
<path d="M70.7996 412.383C74.7797 407.39 75.8634 401.634 73.2201 399.527C70.5769 397.42 65.2076 399.759 61.2275 404.752C57.2475 409.745 56.1638 415.5 58.807 417.608C61.4503 419.715 66.8195 417.375 70.7996 412.383Z" fill="#FFB8B8"/>
<path d="M54.792 478.957C54.792 478.957 56.1521 522.481 60.9126 547.644C65.6731 572.806 58.1923 663.256 58.1923 663.256L73.1539 670.056L82.6749 659.855C82.6749 659.855 79.2745 641.494 84.035 628.572C88.7955 615.651 90.8357 559.885 90.8357 559.885L98.9965 485.078L54.792 478.957Z" fill="#FFB8B8"/>
<path d="M110.558 491.878L153.402 570.086L192.166 641.493V656.455L211.888 650.334L205.088 634.693C205.088 634.693 201.687 573.486 177.205 549.684L156.122 489.158L110.558 491.878Z" fill="#FFB8B8"/>
<path d="M85.0551 386.807H77.5744C77.5744 386.807 36.7702 442.573 38.8104 476.577L97.2964 500.379L99.3366 495.619C99.3366 495.619 147.622 504.459 159.863 494.258L142.861 407.209L141.501 394.968L85.0551 386.807Z" fill="#041F28"/>
<path d="M66.3533 662.576C66.3533 662.576 75.8743 650.334 64.3131 649.654C52.7519 648.974 52.7519 656.455 52.7519 656.455L26.9092 674.137C26.9092 674.137 -15.9352 689.778 14.668 694.539C14.668 694.539 27.5893 697.259 43.911 691.139C53.714 687.457 64.0493 685.39 74.5141 685.018C74.5141 685.018 89.4757 684.338 89.4757 676.857C89.4757 669.376 82.1769 656.455 82.1769 656.455C82.1769 656.455 70.4337 664.616 66.3533 662.576Z" fill="#041F28"/>
<path d="M213.248 645.574C213.248 645.574 190.126 640.813 189.446 649.654C188.766 658.495 189.446 673.457 189.446 673.457C189.446 673.457 194.886 680.257 193.526 685.018C192.166 689.778 196.927 704.74 213.248 702.7C229.57 700.66 224.129 677.537 224.129 677.537L213.248 651.014V645.574Z" fill="#041F28"/>
<path d="M139.121 269.835C151.703 269.835 161.903 259.635 161.903 247.053C161.903 234.471 151.703 224.271 139.121 224.271C126.538 224.271 116.338 234.471 116.338 247.053C116.338 259.635 126.538 269.835 139.121 269.835Z" fill="#FFB8B8"/>
<path d="M123.819 259.634L123.479 298.738L151.362 289.217C151.362 289.217 147.962 266.775 148.642 264.735L123.819 259.634Z" fill="#FFB8B8"/>
<path d="M118.719 287.177C118.719 287.177 147.962 276.976 151.362 278.336C154.762 279.696 156.122 287.177 156.122 287.177C156.122 287.177 172.444 283.777 174.484 294.658C176.525 305.539 161.563 353.144 161.563 353.144L146.601 381.027C146.601 381.027 154.082 392.588 141.161 396.668C128.24 400.749 81.3148 387.827 81.3148 387.827C81.3148 387.827 73.1539 378.306 81.3148 378.306C81.3148 378.306 84.0351 369.465 86.7553 367.425C89.4756 365.385 84.7151 361.985 87.4354 361.305C90.1557 360.625 90.1557 359.264 90.1557 359.264C90.1557 359.264 76.5543 340.903 88.7956 325.941C101.037 310.979 102.737 297.038 108.858 294.998C114.978 292.958 118.719 287.177 118.719 287.177Z" fill="white"/>
<path d="M135.642 448.924C141.558 446.523 145.324 442.037 144.053 438.905C142.781 435.773 136.955 435.18 131.038 437.582C125.122 439.983 121.357 444.469 122.628 447.601C123.899 450.733 129.726 451.326 135.642 448.924Z" fill="#FFB8B8"/>
<path d="M164.283 292.618H173.871C173.871 292.618 201.687 359.945 193.526 381.027C185.366 402.109 155.443 438.833 155.443 438.833C155.443 438.833 145.921 455.834 139.121 455.834C132.32 455.834 124.839 431.352 124.839 431.352L146.602 421.831L172.444 374.226L160.203 337.502L164.283 292.618Z" fill="white"/>
<path opacity="0.2" d="M118.415 418.605L98.6628 495.445L99.9805 495.784L119.733 418.944L118.415 418.605Z" fill="black"/>
<path d="M166.664 237.872L162.583 230.391L156.463 234.495C155.833 235.364 155.002 236.067 154.042 236.545C153.081 237.022 152.02 237.261 150.947 237.239L129.577 236.808C128.618 236.788 127.673 236.573 126.799 236.176C125.926 235.778 125.144 235.206 124.499 234.495C122.819 235.118 121.314 236.137 120.112 237.465C118.91 238.794 118.046 240.393 117.594 242.126L114.978 252.154V218.15H155.782L166.664 237.872Z" fill="#041F28"/>
</svg>
