<svg width="303" height="157" viewBox="0 0 303 157" fill="none" xmlns="http://www.w3.org/2000/svg">
<path d="M89.8639 62.76H109.064V67.368H95.7199V75H107.816V79.56H95.7199V88.392H109.208V93H89.8639V62.76ZM114.426 62.76H119.706L131.226 79.752C131.866 80.712 132.458 81.672 133.002 82.632C133.546 83.56 133.978 84.328 134.298 84.936H134.394C134.202 82.728 134.106 80.52 134.106 78.312C134.106 76.072 134.106 73.848 134.106 71.64V62.76H139.626V93H134.346L123.354 76.92C122.618 75.832 121.914 74.696 121.242 73.512C120.602 72.328 120.106 71.368 119.754 70.632H119.658C119.818 73 119.898 75.304 119.898 77.544C119.93 79.752 119.946 82.008 119.946 84.312V93H114.426V62.76ZM160.693 62.28C162.517 62.28 164.149 62.424 165.589 62.712C167.061 63 168.389 63.432 169.573 64.008L168.325 68.136C167.205 67.592 166.053 67.208 164.869 66.984C163.685 66.728 162.485 66.6 161.269 66.6C159.925 66.6 158.645 66.808 157.429 67.224C156.245 67.64 155.189 68.312 154.261 69.24C153.365 70.136 152.645 71.304 152.101 72.744C151.589 74.152 151.333 75.88 151.333 77.928C151.333 81.544 152.133 84.312 153.733 86.232C155.365 88.152 157.685 89.112 160.693 89.112C162.581 89.112 164.053 88.904 165.109 88.488V81H159.877V76.584H170.677V91.656C169.397 92.2 167.941 92.648 166.309 93C164.677 93.32 162.805 93.48 160.693 93.48C158.517 93.48 156.469 93.144 154.549 92.472C152.661 91.8 151.013 90.808 149.605 89.496C148.197 88.184 147.093 86.568 146.293 84.648C145.493 82.696 145.093 80.456 145.093 77.928C145.093 75.4 145.493 73.16 146.293 71.208C147.093 69.256 148.181 67.624 149.557 66.312C150.965 64.968 152.613 63.96 154.501 63.288C156.421 62.616 158.485 62.28 160.693 62.28Z" fill="#242941"/>
<path d="M216.018 76.3673L288.073 133L5.00012 133V22L288.073 22L216.018 76.3673Z" stroke="#242941" stroke-width="10"/>
</svg>
