<svg width="909" height="669" viewBox="0 0 909 669" fill="none" xmlns="http://www.w3.org/2000/svg">
<path d="M72.5 145C112.541 145 145 112.541 145 72.5C145 32.4594 112.541 0 72.5 0C32.4594 0 0 32.4594 0 72.5C0 112.541 32.4594 145 72.5 145Z" fill="white"/>
<path opacity="0.1" d="M431 669C629.27 669 790 654.897 790 637.5C790 620.103 629.27 606 431 606C232.73 606 72 620.103 72 637.5C72 654.897 232.73 669 431 669Z" fill="#252223"/>
<path d="M551.5 616H548.5C548.5 515.272 566.638 420.604 599.573 349.435C632.678 277.897 676.867 238.5 724 238.5V241.5C628.883 241.5 551.5 409.5 551.5 616Z" fill="#041F28"/>
<path d="M789 150.5C789 173.972 778.703 204 766 204C753.297 204 743 173.972 743 150.5C743 127.028 753.297 119 766 119C778.703 119 789 127.028 789 150.5Z" fill="#041F28"/>
<path d="M776.378 339.924C768.075 317.97 767.086 286.241 778.967 281.747C790.848 277.254 811.101 301.699 819.404 323.653C827.707 345.608 820.914 356.759 809.033 361.252C797.152 365.745 784.68 361.879 776.378 339.924Z" fill="#041F28"/>
<path d="M776 269C792.016 269 805 256.016 805 240C805 223.984 792.016 211 776 211C759.984 211 747 223.984 747 240C747 256.016 759.984 269 776 269Z" fill="#041F28"/>
<path d="M384.5 627H381.5C381.5 420.5 304.117 252.5 209 252.5V249.5C256.133 249.5 300.322 288.897 333.427 360.435C366.362 431.604 384.5 526.272 384.5 627Z" fill="#041F28"/>
<path d="M144 161.5C144 184.972 154.297 215 167 215C179.703 215 190 184.972 190 161.5C190 138.028 179.703 130 167 130C154.297 130 144 138.028 144 161.5Z" fill="#041F28"/>
<path d="M53.7351 261.631C76.9516 265.085 108.168 259.319 110.037 246.754C111.907 234.19 83.721 219.586 60.5045 216.132C37.2879 212.677 27.832 221.681 25.9627 234.246C24.0934 246.81 30.5185 258.177 53.7351 261.631Z" fill="#041F28"/>
<path d="M852.077 244.243C875.294 247.697 906.51 241.931 908.379 229.367C910.249 216.802 882.063 202.198 858.847 198.744C835.63 195.29 826.174 204.294 824.305 216.858C822.435 229.422 828.861 240.789 852.077 244.243Z" fill="#041F28"/>
<path d="M156.622 350.924C164.925 328.97 165.914 297.241 154.033 292.747C142.152 288.254 121.898 312.699 113.596 334.653C105.293 356.608 112.086 367.759 123.967 372.252C135.848 376.745 148.32 372.879 156.622 350.924Z" fill="#041F28"/>
<path d="M157 280C173.016 280 186 267.016 186 251C186 234.984 173.016 222 157 222C140.984 222 128 234.984 128 251C128 267.016 140.984 280 157 280Z" fill="#041F28"/>
<path d="M184 621V563C184 563 207 584 184 626" fill="#041F28"/>
<path d="M184.759 619.496L201.058 563.833C201.058 563.833 217.23 590.45 183.354 624.294" fill="#041F28"/>
<path d="M588 608V550C588 550 611 571 588 613" fill="#041F28"/>
<path d="M588.759 606.496L605.058 550.833C605.058 550.833 621.23 577.45 587.354 611.294" fill="#041F28"/>
<path d="M502 611V553C502 553 479 574 502 616" fill="#041F28"/>
<path d="M501.241 609.496L484.942 553.833C484.942 553.833 468.77 580.45 502.646 614.294" fill="#041F28"/>
<path d="M428.167 73H428.167C439.554 73 450.475 77.5236 458.527 85.5757C466.579 93.6278 471.103 104.549 471.103 115.936V157.987H385.23V115.936C385.23 110.298 386.341 104.714 388.499 99.5052C390.657 94.296 393.819 89.5627 397.806 85.5757C401.793 81.5887 406.526 78.4261 411.736 76.2683C416.945 74.1106 422.528 73 428.167 73V73Z" fill="#041F28"/>
<path d="M470.66 162.856C454.912 174.044 433.933 178.359 411.346 180.562C426.908 167.935 420.81 153.99 411.346 139.839L445.872 136.298C446.87 149.144 456.832 157.063 470.66 162.856Z" fill="#FFB8B8"/>
<path d="M477.742 296.534L375.935 282.37C384.187 266.822 389.729 251.802 387.784 238.238C386.75 231.46 386.836 224.557 388.04 217.807L388.688 214.352C390.036 207.703 392.608 201.363 396.272 195.655C400.361 189.067 398.95 179.168 397.182 169.053L421.084 165.512C434.274 172.212 449.081 167.748 464.463 159.315L492.792 161.971C490.873 212.454 486.653 258.756 477.742 296.534Z" fill="white"/>
<path d="M562.73 600.186L543.253 603.727L417.543 385.062L367.967 603.727L350.262 602.842C349.874 478.923 344.303 342.865 374.271 290.021C385.514 263.339 402.717 237.791 396.296 211.547C421.514 218.896 446.897 218.37 472.431 210.662C471.232 242.151 472.368 271.655 476.857 298.305L562.73 600.186Z" fill="#041F28"/>
<path d="M557.183 659.5C552.932 659.5 548.799 658.099 545.424 655.512C542.05 652.926 539.622 649.3 538.517 645.195L536.79 638.781C536.381 637.262 536.258 635.68 536.427 634.116L539.712 603.727C545.977 595.961 555.086 594.089 568.041 600.186L576.047 635.946C576.68 638.773 576.67 641.707 576.016 644.529C575.363 647.352 574.083 649.992 572.272 652.253C570.461 654.515 568.164 656.34 565.552 657.594C562.941 658.849 560.08 659.5 557.183 659.5V659.5Z" fill="white"/>
<path d="M361.536 659.5C357.284 659.5 353.151 658.099 349.777 655.512C346.402 652.926 343.974 649.3 342.869 645.195L341.142 638.781C340.733 637.262 340.61 635.68 340.779 634.116L344.065 603.727C350.329 595.961 359.438 594.089 372.394 600.186L380.4 635.946C381.033 638.773 381.022 641.707 380.369 644.529C379.715 647.352 378.435 649.992 376.624 652.253C374.813 654.515 372.517 656.34 369.905 657.594C367.293 658.849 364.433 659.5 361.536 659.5Z" fill="white"/>
<path d="M423.74 150.462C439.875 150.462 452.955 137.383 452.955 121.248C452.955 105.113 439.875 92.0337 423.74 92.0337C407.606 92.0337 394.526 105.113 394.526 121.248C394.526 137.383 407.606 150.462 423.74 150.462Z" fill="#FFB8B8"/>
<path d="M401.165 219.957C402.632 219.957 403.821 218.768 403.821 217.301C403.821 215.834 402.632 214.645 401.165 214.645C399.699 214.645 398.51 215.834 398.51 217.301C398.51 218.768 399.699 219.957 401.165 219.957Z" fill="#E6E6E6"/>
<path d="M468.447 219.957C469.914 219.957 471.103 218.768 471.103 217.301C471.103 215.834 469.914 214.645 468.447 214.645C466.98 214.645 465.791 215.834 465.791 217.301C465.791 218.768 466.98 219.957 468.447 219.957Z" fill="#E6E6E6"/>
<path d="M442.774 117.264L396.739 116.449V86.2791H452.512L442.774 117.264Z" fill="#041F28"/>
<path d="M461.365 157.102H441.003C448.529 139.122 447.866 120.156 441.003 100.444H461.365V157.102Z" fill="#041F28"/>
<path d="M486.595 324.863L474.534 339.004C472.984 340.821 471.024 342.242 468.816 343.149C466.608 344.056 464.215 344.424 461.836 344.222C459.457 344.019 457.161 343.252 455.138 341.985C453.115 340.718 451.423 338.986 450.202 336.934V336.934C449.11 335.096 448.422 333.046 448.185 330.921C447.949 328.796 448.169 326.645 448.831 324.611C449.493 322.578 450.581 320.71 452.024 319.131C453.466 317.553 455.229 316.3 457.194 315.458L478.628 306.272L504.301 269.975L490.137 207.12L514.924 199.153L529.089 278.828L486.595 324.863Z" fill="#FFB8B8"/>
<path d="M393.641 331.486L405.702 345.627C407.252 347.443 409.212 348.864 411.42 349.772C413.628 350.679 416.021 351.047 418.4 350.844C420.779 350.642 423.075 349.875 425.098 348.608C427.121 347.34 428.813 345.609 430.033 343.557V343.557C431.126 341.719 431.814 339.669 432.05 337.544C432.287 335.419 432.067 333.267 431.405 331.234C430.743 329.201 429.655 327.333 428.212 325.754C426.77 324.175 425.007 322.923 423.042 322.081L401.608 312.895L375.935 276.598L390.099 213.743L365.311 205.776L351.147 285.451L393.641 331.486Z" fill="#FFB8B8"/>
<path d="M518.466 202.694C512.909 202.529 507.378 203.506 502.214 205.565C497.051 207.623 492.365 210.72 488.446 214.662L479.593 161.545L490.301 161.42C494.667 161.581 498.878 163.079 502.366 165.71C505.853 168.341 508.45 171.979 509.804 176.133L518.466 202.694Z" fill="white"/>
<path d="M361.77 209.317C367.327 209.152 372.858 210.129 378.021 212.187C383.185 214.246 387.871 217.342 391.79 221.285C402.036 205.745 403.521 187.604 400.643 168.168L389.935 168.042C385.569 168.204 381.358 169.702 377.87 172.333C374.383 174.964 371.786 178.602 370.432 182.756L361.77 209.317Z" fill="white"/>
<path d="M468.004 215.088H468.98L474.858 160.503C474.874 160.353 474.859 160.202 474.812 160.058C474.766 159.915 474.69 159.783 474.589 159.671C474.489 159.559 474.365 159.469 474.228 159.408C474.09 159.347 473.941 159.315 473.791 159.315H469.078C468.793 159.315 468.52 159.428 468.319 159.63C468.118 159.831 468.005 160.104 468.004 160.389V215.088Z" fill="#041F28"/>
<path d="M399.838 217.744H400.821L406.699 167.78C406.713 167.662 406.702 167.542 406.666 167.429C406.631 167.316 406.571 167.211 406.492 167.122C406.413 167.034 406.317 166.963 406.208 166.914C406.1 166.865 405.982 166.84 405.863 166.84H400.68C400.457 166.84 400.242 166.929 400.085 167.087C399.927 167.245 399.838 167.459 399.838 167.682V217.744Z" fill="#041F28"/>
</svg>
