<svg version="1.0" xmlns="http://www.w3.org/2000/svg" viewBox="0 0 100.000000 100.000000"
 preserveAspectRatio="xMidYMid meet">
<g transform="translate(0.000000,100.000000) scale(0.100000,-0.100000)"
fill="#000000" stroke="none">
<path d="M545 690 l-310 -310 73 -72 72 -73 310 310 c242 242 310 315 310 335
0 56 -65 120 -122 120 -17 0 -106 -83 -333 -310z"/>
<path d="M107 252 c-116 -116 -123 -131 -87 -189 21 -35 66 -63 102 -63 16 0
56 33 133 110 l110 110 -70 70 c-38 38 -72 70 -75 70 -3 0 -54 -48 -113 -108z"/>
</g>
</svg>
