<svg version="1.0" xmlns="http://www.w3.org/2000/svg" viewBox="0 0 100.000000 100.000000"
 preserveAspectRatio="xMidYMid meet">
<g transform="translate(0.000000,100.000000) scale(0.100000,-0.100000)"
fill="#000000" stroke="none">
<path d="M796 971 c-3 -5 3 -20 14 -33 22 -29 17 -42 -10 -26 -9 6 -25 8 -35
4 -16 -6 -16 -8 -1 -31 12 -18 14 -30 7 -44 -8 -14 -4 -24 22 -49 l33 -32 77
57 c88 66 94 83 44 131 -34 33 -65 40 -84 21 -8 -8 -13 -8 -17 0 -9 13 -43 15
-50 2z"/>
<path d="M634 708 c-52 -50 -94 -97 -94 -103 0 -14 52 -65 66 -65 13 0 194
184 194 197 0 11 -53 63 -64 63 -5 0 -51 -41 -102 -92z"/>
<path d="M310 559 c-102 -21 -209 -44 -237 -50 -45 -9 -53 -14 -53 -32 0 -31
426 -457 458 -457 12 0 22 1 22 3 0 1 22 110 49 242 l50 240 -47 48 c-25 26
-49 47 -52 46 -3 0 -88 -18 -190 -40z"/>
</g>
</svg>
