<svg version="1.0" xmlns="http://www.w3.org/2000/svg" viewBox="0 0 100.000000 100.000000"
 preserveAspectRatio="xMidYMid meet">
<g transform="translate(0.000000,100.000000) scale(0.100000,-0.100000)"
fill="#000000" stroke="none">
<path d="M674 985 c-4 -9 -1 -35 5 -60 6 -24 11 -65 11 -91 0 -46 -2 -49 -97
-145 -53 -55 -100 -99 -105 -99 -4 0 -8 11 -8 25 0 32 -29 33 -58 2 -30 -32
-29 -57 3 -57 30 0 32 -11 7 -33 -25 -23 -32 -21 -32 8 0 32 -29 33 -58 2 -30
-32 -29 -57 3 -57 30 0 32 -11 7 -33 -25 -23 -32 -21 -32 8 0 32 -29 33 -58 2
-30 -32 -29 -57 3 -57 14 0 25 -3 25 -8 0 -4 -36 -43 -80 -87 l-80 -79 47 -48
47 -48 44 43 c30 28 46 38 49 29 3 -7 14 -22 25 -32 58 -54 141 -25 252 90
114 117 134 184 72 246 l-33 33 79 77 79 77 67 -8 c124 -14 137 -13 140 14 3
19 -23 50 -134 162 -138 138 -176 163 -190 124z m-46 -511 c12 -8 22 -25 22
-38 0 -52 -125 -192 -205 -230 -33 -16 -38 -16 -61 -2 -44 30 -32 54 89 174
63 62 118 112 123 112 5 0 20 -7 32 -16z"/>
<path d="M65 160 c-21 -22 -45 -40 -52 -40 -26 0 -12 -37 30 -78 42 -41 77
-55 77 -30 0 7 19 32 42 55 l42 43 -44 45 c-24 25 -47 45 -50 45 -3 0 -24 -18
-45 -40z"/>
</g>
</svg>
