<svg width="304" height="157" viewBox="0 0 304 157" fill="none" xmlns="http://www.w3.org/2000/svg">
<path d="M68.504 93V62.76H74.36V75H86.792V62.76H92.648V93H86.792V79.704H74.36V93H68.504ZM105.485 62.76V93H99.629V62.76H105.485ZM112.426 62.76H117.706L129.226 79.752C129.866 80.712 130.458 81.672 131.002 82.632C131.546 83.56 131.978 84.328 132.298 84.936H132.394C132.202 82.728 132.106 80.52 132.106 78.312C132.106 76.072 132.106 73.848 132.106 71.64V62.76H137.626V93H132.346L121.354 76.92C120.618 75.832 119.914 74.696 119.242 73.512C118.602 72.328 118.106 71.368 117.754 70.632H117.658C117.818 73 117.898 75.304 117.898 77.544C117.93 79.752 117.946 82.008 117.946 84.312V93H112.426V62.76ZM154.949 62.76C157.221 62.76 159.301 63.064 161.189 63.672C163.077 64.28 164.693 65.192 166.037 66.408C167.413 67.624 168.469 69.144 169.205 70.968C169.973 72.76 170.357 74.856 170.357 77.256C170.357 80.04 169.909 82.44 169.013 84.456C168.117 86.44 166.901 88.072 165.365 89.352C163.829 90.6 162.037 91.528 159.989 92.136C157.973 92.712 155.813 93 153.509 93H144.629V62.76H154.949ZM150.485 88.392H153.077C154.485 88.392 155.845 88.232 157.157 87.912C158.501 87.56 159.685 86.968 160.709 86.136C161.733 85.304 162.549 84.168 163.157 82.728C163.797 81.288 164.117 79.464 164.117 77.256C164.117 74.056 163.205 71.608 161.381 69.912C159.589 68.216 157.157 67.368 154.085 67.368H150.485V88.392ZM181.704 62.76V93H175.848V62.76H181.704Z" fill="#242941"/>
<path d="M216.709 76.3673L289 133L5 133V22L289 22L216.709 76.3673Z" stroke="#242941" stroke-width="10"/>
</svg>
