<svg version="1.0" xmlns="http://www.w3.org/2000/svg" viewBox="0 0 100.000000 100.000000"
 preserveAspectRatio="xMidYMid meet">
<g transform="translate(0.000000,100.000000) scale(0.100000,-0.100000)"
fill="#000000" stroke="none">
<path d="M65 975 c-24 -23 -30 -45 -25 -90 5 -58 64 -86 125 -61 l33 14 -15
-51 c-8 -29 -28 -77 -43 -108 -47 -93 -63 -162 -58 -258 5 -106 38 -174 110
-232 87 -69 142 -83 308 -83 166 0 221 14 308 83 71 56 105 126 110 228 5 97
-5 144 -57 261 -22 48 -44 104 -49 124 l-10 38 30 -16 c57 -30 122 1 128 61 5
45 -1 67 -25 90 -20 21 -34 25 -80 25 -142 0 -175 -81 -121 -300 61 -247 43
-364 -67 -423 -37 -19 -57 -22 -167 -22 -110 0 -130 3 -167 22 -110 59 -128
176 -67 423 54 219 21 300 -121 300 -46 0 -60 -4 -80 -25z"/>
<path d="M440 900 c0 -73 -2 -80 -20 -80 -18 0 -20 7 -20 60 0 53 -2 60 -20
60 -18 0 -20 -7 -20 -60 0 -52 -2 -60 -19 -60 -10 0 -21 -9 -24 -20 -4 -16 0
-20 19 -20 l24 0 0 -245 c0 -238 1 -245 20 -245 19 0 20 7 20 245 0 238 1 245
20 245 19 0 20 -7 20 -250 0 -243 1 -250 20 -250 19 0 20 7 20 250 0 243 1
250 20 250 19 0 20 -7 20 -250 0 -243 1 -250 20 -250 19 0 20 7 20 250 0 243
1 250 20 250 19 0 20 -7 20 -245 0 -238 1 -245 20 -245 19 0 20 7 20 245 l0
245 24 0 c19 0 23 4 19 20 -3 11 -14 20 -24 20 -17 0 -19 8 -19 60 0 53 -2 60
-20 60 -18 0 -20 -7 -20 -60 0 -53 -2 -60 -20 -60 -18 0 -20 7 -20 80 0 73 -2
80 -20 80 -18 0 -20 -7 -20 -80 0 -73 -2 -80 -20 -80 -18 0 -20 7 -20 80 0 73
-2 80 -20 80 -18 0 -20 -7 -20 -80z"/>
<path d="M180 60 l0 -60 320 0 320 0 0 60 0 60 -32 0 c-18 0 -57 -9 -86 -20
-109 -42 -295 -42 -404 0 -29 11 -68 20 -85 20 l-33 0 0 -60z"/>
</g>
</svg>
