<svg version="1.0" xmlns="http://www.w3.org/2000/svg" viewBox="0 0 128.000000 128.000000"
 preserveAspectRatio="xMidYMid meet">
<g transform="translate(0.000000,128.000000) scale(0.100000,-0.100000)"
fill="#000000" stroke="none">
<path d="M174 1081 c-67 -41 -64 -18 -64 -524 0 -502 0 -501 60 -532 44 -23
896 -23 940 0 60 31 60 29 60 533 0 451 0 460 -21 486 -44 56 -41 56 -511 56
-409 0 -435 -1 -464 -19z m126 -277 l0 -226 30 -11 30 -11 0 -169 0 -169 -70
4 c-56 3 -75 8 -93 26 -22 23 -22 23 -22 383 l0 361 24 19 c14 11 39 19 62 19
l39 0 0 -226z m250 0 l0 -226 30 -11 30 -11 0 -168 0 -168 -90 0 -90 0 0 170
c0 141 2 170 14 170 8 0 22 10 30 22 13 19 16 59 16 235 l0 213 30 0 30 0 0
-226z m250 0 l0 -226 30 -11 30 -11 0 -168 0 -168 -90 0 -90 0 0 170 c0 141 2
170 14 170 8 0 22 10 30 22 13 19 16 59 16 235 l0 213 30 0 30 0 0 -226z m281
207 l24 -19 0 -361 c0 -359 0 -360 -22 -383 -18 -17 -37 -23 -88 -26 l-65 -4
0 171 c0 142 2 171 14 171 8 0 22 10 30 22 13 19 16 59 16 235 l0 213 34 0
c19 0 44 -9 57 -19z"/>
</g>
</svg>
