<svg version="1.0" xmlns="http://www.w3.org/2000/svg" viewBox="0 0 100.000000 100.000000"
 preserveAspectRatio="xMidYMid meet">
<g transform="translate(0.000000,100.000000) scale(0.100000,-0.100000)"
fill="#000000" stroke="none">
<path d="M686 906 c-114 -70 -120 -73 -170 -68 -28 2 -55 8 -61 13 -12 11 -62
12 -69 0 -5 -7 -30 -11 -184 -28 -31 -3 -56 -11 -59 -19 -3 -7 -24 -25 -48
-38 -95 -56 -122 -134 -70 -202 57 -74 220 -127 395 -127 133 0 213 17 310 66
77 39 110 81 110 142 0 41 1 42 43 54 77 22 97 33 97 53 0 31 -28 32 -107 5
l-75 -27 -28 20 c-16 11 -51 31 -80 44 l-51 24 98 52 c112 59 128 72 120 94
-11 29 -51 15 -171 -58z"/>
<path d="M0 355 c0 -183 0 -184 26 -214 30 -36 111 -87 122 -76 4 3 8 91 10
195 l4 188 -29 10 c-15 5 -52 26 -80 45 l-53 36 0 -184z"/>
<path d="M806 516 c-16 -13 -51 -34 -78 -47 l-50 -23 4 -187 c2 -103 6 -191
10 -194 11 -11 92 40 122 76 26 30 26 31 26 215 0 101 -1 184 -2 184 -2 -1
-16 -11 -32 -24z"/>
<path d="M201 236 l3 -195 48 -11 c27 -5 69 -10 93 -10 l44 0 6 42 c3 24 5
111 3 193 l-3 150 -67 7 c-37 3 -81 9 -98 13 l-31 7 2 -196z"/>
<path d="M605 424 c-6 -2 -44 -7 -85 -12 l-75 -7 -3 -150 c-2 -82 0 -169 3
-192 l6 -43 44 0 c24 0 66 5 93 10 l48 11 3 194 c2 199 2 204 -34 189z"/>
</g>
</svg>
