<svg width="304" height="157" viewBox="0 0 304 157" fill="none" xmlns="http://www.w3.org/2000/svg">
<path d="M97.504 62.76H116.704V67.368H103.36V75H115.456V79.56H103.36V88.392H116.848V93H97.504V62.76ZM131.427 62.28C133.219 62.28 134.835 62.456 136.275 62.808C137.747 63.128 139.091 63.592 140.307 64.2L138.963 68.712C137.651 68.072 136.403 67.592 135.219 67.272C134.035 66.952 132.867 66.792 131.715 66.792C130.083 66.792 128.803 67.128 127.875 67.8C126.979 68.472 126.531 69.384 126.531 70.536C126.531 71.656 126.899 72.52 127.635 73.128C128.403 73.704 129.619 74.264 131.283 74.808L134.211 75.768C136.707 76.6 138.611 77.752 139.923 79.224C141.235 80.696 141.891 82.44 141.891 84.456C141.891 85.768 141.635 86.968 141.123 88.056C140.611 89.144 139.875 90.104 138.915 90.936C137.955 91.736 136.771 92.36 135.363 92.808C133.987 93.256 132.419 93.48 130.659 93.48C128.931 93.48 127.251 93.32 125.618 93C123.987 92.648 122.419 92.104 120.915 91.368L122.259 86.904C123.635 87.576 124.979 88.088 126.291 88.44C127.603 88.792 128.979 88.968 130.419 88.968C132.147 88.968 133.491 88.632 134.451 87.96C135.443 87.288 135.939 86.312 135.939 85.032C135.939 84.584 135.859 84.152 135.699 83.736C135.539 83.32 135.251 82.936 134.835 82.584C134.451 82.2 133.907 81.848 133.203 81.528C132.531 81.176 131.651 80.824 130.562 80.472L127.875 79.56C125.667 78.792 123.891 77.784 122.547 76.536C121.235 75.256 120.579 73.464 120.579 71.16C120.579 68.504 121.507 66.36 123.363 64.728C125.219 63.096 127.907 62.28 131.427 62.28ZM147.332 62.76H157.556C159.252 62.76 160.788 62.968 162.164 63.384C163.54 63.8 164.724 64.408 165.716 65.208C166.708 65.976 167.46 66.936 167.972 68.088C168.516 69.208 168.788 70.504 168.788 71.976C168.788 73.672 168.484 75.128 167.876 76.344C167.268 77.56 166.436 78.584 165.38 79.416C164.324 80.216 163.076 80.808 161.636 81.192C160.196 81.576 158.644 81.768 156.98 81.768H153.188V93H147.332V62.76ZM153.188 77.208H155.876C156.836 77.208 157.732 77.128 158.564 76.968C159.396 76.808 160.116 76.536 160.724 76.152C161.364 75.768 161.86 75.256 162.212 74.616C162.564 73.976 162.74 73.176 162.74 72.216C162.74 71.352 162.58 70.616 162.26 70.008C161.94 69.368 161.492 68.856 160.916 68.472C160.372 68.056 159.732 67.752 158.996 67.56C158.26 67.368 157.492 67.272 156.692 67.272H153.188V77.208Z" fill="#242941"/>
<path d="M216.709 77.3673L289 134L5 134V23L289 23L216.709 77.3673Z" stroke="#242941" stroke-width="10"/>
</svg>
