<svg width="1057" height="785" viewBox="0 0 1057 785" fill="none" xmlns="http://www.w3.org/2000/svg">
<g opacity="0.2">
<path opacity="0.2" d="M648.11 544.22C647.498 545.36 646.793 546.447 646 547.47C639 542.57 631.873 537.747 624.62 533L625.09 532.07C626.767 528.831 629.276 526.098 632.36 524.15C636.36 521.69 640.87 521.15 644.58 523.15C648.29 525.15 650.36 529.15 650.58 533.82C650.686 537.444 649.834 541.031 648.11 544.22V544.22Z" fill="#3F3D56"/>
<path opacity="0.2" d="M657.874 525.895C662.281 517.573 660.703 508.099 654.349 504.733C647.995 501.367 639.27 505.384 634.863 513.706C630.455 522.027 632.033 531.501 638.387 534.867C644.742 538.233 653.466 534.216 657.874 525.895Z" fill="#3F3D56"/>
<path opacity="0.2" d="M667.629 507.482C672.037 499.16 670.459 489.686 664.104 486.32C657.75 482.954 649.025 486.971 644.618 495.293C640.21 503.614 641.788 513.088 648.143 516.454C654.497 519.82 663.221 515.803 667.629 507.482Z" fill="#3F3D56"/>
<path opacity="0.2" d="M677.384 489.078C681.792 480.757 680.214 471.283 673.86 467.917C667.505 464.551 658.781 468.568 654.373 476.889C649.965 485.21 651.544 494.685 657.898 498.051C664.252 501.416 672.977 497.399 677.384 489.078Z" fill="#3F3D56"/>
<path opacity="0.2" d="M687.129 470.665C691.537 462.343 689.959 452.869 683.605 449.503C677.25 446.137 668.526 450.155 664.118 458.476C659.711 466.797 661.289 476.271 667.643 479.637C673.997 483.003 682.722 478.986 687.129 470.665Z" fill="#3F3D56"/>
<path opacity="0.2" d="M699.25 315.72C698.717 312.887 698.383 310.02 698.25 307.14L731.17 318.22L698.34 301.14C698.817 292.653 701.021 284.353 704.817 276.747C708.614 269.142 713.923 262.392 720.42 256.91L752.23 302.91L727.5 251.71C734.759 247.167 742.876 244.167 751.345 242.898C759.814 241.629 768.453 242.117 776.725 244.332C784.997 246.548 792.724 250.443 799.425 255.775C806.126 261.107 811.657 267.762 815.673 275.325C819.69 282.888 822.106 291.197 822.771 299.735C823.436 308.273 822.336 316.856 819.539 324.95C816.742 333.043 812.308 340.475 806.514 346.78C800.72 353.086 793.689 358.13 785.86 361.6C786.674 366.014 787.009 370.504 786.86 374.99L736.86 374.59L786.14 382.71C784.482 392.952 780.295 402.619 773.958 410.834C767.621 419.05 759.335 425.555 749.85 429.76C751.938 441.277 750.744 453.148 746.403 464.018C742.062 474.887 734.751 484.316 725.304 491.226C715.857 498.137 704.657 502.249 692.983 503.094C681.309 503.939 669.634 501.482 659.29 496.004C648.947 490.527 640.354 482.249 634.493 472.118C628.632 461.986 625.741 450.411 626.148 438.713C626.556 427.016 630.247 415.67 636.799 405.972C643.352 396.273 652.5 388.614 663.2 383.87C660.708 370.108 662.913 355.908 669.459 343.549C676.006 331.19 686.515 321.39 699.3 315.72H699.25Z" fill="#6C63FF"/>
<path opacity="0.1" d="M779.64 401.93C773.109 414.301 762.596 424.106 749.8 429.76C751.888 441.276 750.693 453.148 746.353 464.018C742.012 474.887 734.7 484.316 725.254 491.226C715.807 498.136 704.607 502.249 692.933 503.094C681.259 503.939 669.583 501.482 659.24 496.004C648.897 490.526 640.304 482.249 634.443 472.117C628.582 461.986 625.691 450.41 626.098 438.713C626.506 427.016 630.197 415.67 636.749 405.971C643.302 396.273 652.45 388.614 663.15 383.87C660.73 370.58 782.92 395.74 779.64 401.93Z" fill="black"/>
</g>
<g opacity="0.2">
<path opacity="0.2" d="M216.98 658.89C217.573 661.304 218.372 663.663 219.37 665.94C234.777 660.04 250.36 654.373 266.12 648.94C265.98 648.3 265.84 647.64 265.68 646.94C264.08 640.101 260.687 633.812 255.85 628.72C249.56 622.24 241.4 619.08 233.55 621C225.7 622.92 219.92 629.47 217.31 638.09C215.346 644.87 215.232 652.052 216.98 658.89Z" fill="#3F3D56"/>
<path opacity="0.2" d="M239.66 645.803C253.111 642.519 260.531 625.587 256.233 607.983C251.936 590.38 237.548 578.772 224.097 582.055C210.646 585.339 203.226 602.272 207.524 619.875C211.822 637.479 226.21 649.087 239.66 645.803Z" fill="#3F3D56"/>
<path opacity="0.2" d="M230.139 606.841C243.59 603.557 251.01 586.624 246.712 569.021C242.414 551.417 228.026 539.809 214.575 543.093C201.125 546.377 193.705 563.31 198.003 580.913C202.3 598.516 216.688 610.125 230.139 606.841Z" fill="#3F3D56"/>
<path opacity="0.2" d="M220.63 567.878C234.081 564.594 241.501 547.661 237.203 530.058C232.905 512.454 218.517 500.846 205.066 504.13C191.616 507.414 184.196 524.347 188.493 541.95C192.791 559.553 207.179 571.162 220.63 567.878Z" fill="#3F3D56"/>
<path opacity="0.2" d="M211.121 528.925C224.572 525.641 231.992 508.709 227.694 491.105C223.396 473.502 209.008 461.894 195.557 465.178C182.107 468.461 174.687 485.394 178.984 502.997C183.282 520.601 197.67 532.209 211.121 528.925Z" fill="#3F3D56"/>
<path opacity="0.2" d="M229.38 208.22C231.678 203.175 233.619 197.976 235.19 192.66L168.64 197.77L237.97 181.39C241.085 165.321 240.889 148.785 237.394 132.794C233.898 116.803 227.176 101.693 217.64 88.3898L136.55 159.22L206.81 75.3898C195.406 63.4859 181.673 54.0577 166.467 47.6926C151.26 41.3276 134.906 38.162 118.422 38.3932C101.939 38.6243 85.68 42.2472 70.6579 49.0361C55.6358 55.825 42.1726 65.6345 31.107 77.8536C20.0414 90.0726 11.6104 104.439 6.33937 120.059C1.0683 135.678 -0.929952 152.216 0.469083 168.641C1.86812 185.067 6.63448 201.028 14.4712 215.531C22.308 230.034 33.0472 242.768 46.0199 252.94C42.4375 260.796 39.7183 269.017 37.91 277.46L131.5 300.34L35.68 292.22C33.9388 312.128 37.1914 332.157 45.1433 350.491C53.0952 368.826 65.4951 384.887 81.22 397.22C71.8859 417.728 68.5111 440.45 71.4814 462.786C74.4517 485.122 83.6473 506.172 98.0167 523.528C112.386 540.885 131.35 553.847 152.739 560.934C174.128 568.022 197.08 568.947 218.97 563.605C240.861 558.263 260.806 546.868 276.526 530.725C292.246 514.582 303.106 494.341 307.865 472.316C312.624 450.292 311.089 427.372 303.437 406.179C295.784 384.986 282.322 366.373 264.59 352.47C275.746 327.96 278.339 300.412 271.954 274.25C265.568 248.089 250.574 224.833 229.38 208.22Z" fill="#6C63FF"/>
<path opacity="0.1" d="M38.6599 331.16C45.0068 357.326 60.0035 380.582 81.2199 397.16C71.8858 417.669 68.511 440.39 71.4813 462.726C74.4516 485.062 83.6472 506.112 98.0166 523.468C112.386 540.825 131.349 553.788 152.739 560.875C174.128 567.962 197.08 568.887 218.97 563.545C240.861 558.203 260.806 546.809 276.526 530.665C292.246 514.522 303.106 494.281 307.865 472.256C312.624 450.232 311.089 427.313 303.437 406.119C295.784 384.926 282.322 366.313 264.59 352.41C275.38 328.77 35.4999 318.07 38.6599 331.16Z" fill="black"/>
</g>
<path opacity="0.1" d="M532 784.44C821.949 784.44 1057 751.757 1057 711.44C1057 671.123 821.949 638.44 532 638.44C242.051 638.44 7 671.123 7 711.44C7 751.757 242.051 784.44 532 784.44Z" fill="#6C63FF"/>
<path d="M686.2 0H157.8C146.865 0 138 8.86476 138 19.8V664.2C138 675.135 146.865 684 157.8 684H686.2C697.135 684 706 675.135 706 664.2V19.8C706 8.86476 697.135 0 686.2 0Z" fill="#041F28"/>
<path opacity="0.5" d="M657 69H187V615H657V69Z" fill="#C0E3E7"/>
<path d="M422 671C433.046 671 442 662.046 442 651C442 639.954 433.046 631 422 631C410.954 631 402 639.954 402 651C402 662.046 410.954 671 422 671Z" fill="white"/>
<path d="M422 49.5C427.247 49.5 431.5 45.2467 431.5 40C431.5 34.7533 427.247 30.5 422 30.5C416.753 30.5 412.5 34.7533 412.5 40C412.5 45.2467 416.753 49.5 422 49.5Z" fill="white"/>
<path d="M422 31C423.78 31 425.52 31.5278 427 32.5168C428.48 33.5057 429.634 34.9113 430.315 36.5558C430.996 38.2004 431.174 40.01 430.827 41.7558C430.48 43.5016 429.623 45.1053 428.364 46.364C427.105 47.6226 425.502 48.4798 423.756 48.8271C422.01 49.1743 420.2 48.9961 418.556 48.3149C416.911 47.6337 415.506 46.4802 414.517 45.0001C413.528 43.5201 413 41.78 413 40C413 37.6131 413.948 35.3239 415.636 33.636C417.324 31.9482 419.613 31 422 31V31ZM422 30C420.022 30 418.089 30.5865 416.444 31.6853C414.8 32.7841 413.518 34.3459 412.761 36.1732C412.004 38.0004 411.806 40.0111 412.192 41.9509C412.578 43.8907 413.53 45.6725 414.929 47.0711C416.327 48.4696 418.109 49.422 420.049 49.8079C421.989 50.1937 424 49.9957 425.827 49.2388C427.654 48.4819 429.216 47.2002 430.315 45.5557C431.414 43.9112 432 41.9778 432 40C432 37.3478 430.946 34.8043 429.071 32.9289C427.196 31.0536 424.652 30 422 30Z" fill="white"/>
<path d="M322 459.89V441.82H324.06V450.49L333.22 442.01C333.365 441.886 333.549 441.818 333.74 441.82C333.855 441.819 333.968 441.84 334.075 441.883C334.181 441.927 334.277 441.991 334.358 442.072C334.439 442.153 334.503 442.249 334.547 442.355C334.59 442.462 334.611 442.575 334.61 442.69V459.02C334.611 459.134 334.59 459.248 334.547 459.354C334.503 459.461 334.439 459.557 334.358 459.638C334.277 459.719 334.181 459.783 334.075 459.826C333.968 459.87 333.855 459.891 333.74 459.89C333.54 459.89 333.347 459.815 333.2 459.68L324.06 451.27V459.89H322Z" fill="white"/>
<path d="M333.74 442.31C333.789 442.309 333.838 442.317 333.883 442.335C333.929 442.354 333.97 442.381 334.005 442.415C334.039 442.45 334.067 442.491 334.085 442.537C334.103 442.582 334.111 442.631 334.11 442.68V459.02C334.107 459.086 334.087 459.151 334.051 459.206C334.015 459.262 333.965 459.307 333.906 459.337C333.846 459.366 333.78 459.379 333.714 459.375C333.648 459.37 333.585 459.348 333.53 459.31L325.23 451.68L324.36 450.87L325.24 450.07L333.53 442.39C333.59 442.342 333.663 442.314 333.74 442.31V442.31ZM323.56 442.31V459.38H322.5V442.31H323.57H323.56ZM333.75 441.31C333.434 441.311 333.13 441.425 332.89 441.63L324.57 449.33V441.82C324.57 441.685 324.516 441.555 324.421 441.459C324.325 441.364 324.195 441.31 324.06 441.31H322C321.865 441.31 321.735 441.364 321.639 441.459C321.544 441.555 321.49 441.685 321.49 441.82V459.82C321.49 459.955 321.544 460.085 321.639 460.181C321.735 460.276 321.865 460.33 322 460.33H324.05C324.185 460.33 324.315 460.276 324.411 460.181C324.506 460.085 324.56 459.955 324.56 459.82V452.36L332.88 460.02C333.121 460.223 333.426 460.332 333.74 460.33C333.92 460.333 334.098 460.299 334.265 460.232C334.432 460.165 334.584 460.065 334.711 459.938C334.839 459.812 334.94 459.661 335.008 459.494C335.077 459.328 335.111 459.15 335.11 458.97V442.68C335.111 442.5 335.077 442.321 335.008 442.154C334.94 441.987 334.839 441.836 334.712 441.708C334.584 441.581 334.433 441.48 334.266 441.412C334.099 441.343 333.92 441.309 333.74 441.31H333.75Z" fill="white"/>
<path d="M519.96 459.89V451.22L510.8 459.7C510.651 459.824 510.464 459.891 510.27 459.89C510.045 459.888 509.83 459.798 509.67 459.64C509.583 459.562 509.515 459.466 509.468 459.359C509.422 459.252 509.398 459.136 509.4 459.02V442.68C509.401 442.516 509.448 442.355 509.536 442.216C509.624 442.078 509.75 441.967 509.899 441.897C510.047 441.827 510.213 441.8 510.376 441.82C510.539 441.84 510.693 441.906 510.82 442.01L519.96 450.43V441.82H521.96V459.88L519.96 459.89Z" fill="white"/>
<path d="M510.26 442.31C510.337 442.31 510.412 442.339 510.47 442.39L518.77 450.02L519.64 450.82L518.77 451.63L510.47 459.31C510.411 459.359 510.336 459.383 510.26 459.38C510.212 459.381 510.164 459.373 510.119 459.356C510.074 459.338 510.033 459.312 509.999 459.278C509.964 459.245 509.937 459.205 509.918 459.16C509.9 459.116 509.89 459.068 509.89 459.02V442.68C509.89 442.582 509.929 442.488 509.998 442.418C510.068 442.349 510.162 442.31 510.26 442.31V442.31ZM521.52 442.31V459.38H520.5V442.31H521.5H521.52ZM510.24 441.31C510.06 441.309 509.881 441.343 509.714 441.412C509.547 441.48 509.396 441.581 509.268 441.708C509.141 441.836 509.04 441.987 508.971 442.154C508.903 442.321 508.869 442.5 508.87 442.68V459.02C508.87 459.2 508.905 459.377 508.974 459.543C509.043 459.709 509.144 459.859 509.272 459.985C509.399 460.112 509.55 460.212 509.716 460.279C509.883 460.347 510.06 460.381 510.24 460.38C510.558 460.384 510.866 460.274 511.11 460.07L519.43 452.36V459.87C519.43 460.005 519.484 460.135 519.579 460.231C519.675 460.326 519.805 460.38 519.94 460.38H521.94C522.008 460.381 522.075 460.369 522.138 460.344C522.201 460.319 522.259 460.282 522.307 460.234C522.355 460.187 522.394 460.13 522.42 460.068C522.446 460.005 522.46 459.938 522.46 459.87V441.87C522.46 441.802 522.446 441.735 522.42 441.673C522.394 441.61 522.355 441.553 522.307 441.506C522.259 441.458 522.201 441.421 522.138 441.396C522.075 441.371 522.008 441.359 521.94 441.36H519.94C519.805 441.36 519.675 441.414 519.579 441.509C519.484 441.605 519.43 441.735 519.43 441.87V449.34L511.11 441.68C510.867 441.473 510.559 441.36 510.24 441.36V441.31Z" fill="white"/>
<path d="M425.4 460.22C424.992 460.22 424.6 460.058 424.311 459.769C424.022 459.48 423.86 459.089 423.86 458.68V443.72C423.87 443.319 424.037 442.937 424.325 442.657C424.613 442.377 424.998 442.22 425.4 442.22H429.5C429.702 442.22 429.902 442.26 430.089 442.337C430.276 442.415 430.446 442.528 430.589 442.671C430.732 442.814 430.845 442.984 430.923 443.171C431 443.358 431.04 443.558 431.04 443.76V458.69C431.037 459.097 430.874 459.486 430.585 459.773C430.297 460.059 429.907 460.22 429.5 460.22H425.4ZM414.5 460.22C414.092 460.22 413.7 460.058 413.411 459.769C413.122 459.48 412.96 459.089 412.96 458.68V443.72C412.97 443.319 413.137 442.937 413.425 442.657C413.713 442.377 414.098 442.22 414.5 442.22H418.57C418.772 442.22 418.972 442.26 419.159 442.337C419.346 442.415 419.516 442.528 419.659 442.671C419.802 442.814 419.915 442.984 419.993 443.171C420.07 443.358 420.11 443.558 420.11 443.76V458.69C420.11 459.099 419.948 459.49 419.659 459.779C419.37 460.068 418.978 460.23 418.57 460.23L414.5 460.22Z" fill="white"/>
<path d="M429.5 442.68C429.765 442.68 430.02 442.785 430.207 442.973C430.395 443.16 430.5 443.415 430.5 443.68V458.62C430.5 458.885 430.395 459.14 430.207 459.327C430.02 459.515 429.765 459.62 429.5 459.62H425.4C425.135 459.62 424.88 459.515 424.693 459.327C424.505 459.14 424.4 458.885 424.4 458.62V443.71C424.4 443.445 424.505 443.19 424.693 443.003C424.88 442.815 425.135 442.71 425.4 442.71H429.5V442.68ZM418.64 442.71C418.905 442.71 419.16 442.815 419.347 443.003C419.535 443.19 419.64 443.445 419.64 443.71V458.65C419.64 458.915 419.535 459.17 419.347 459.357C419.16 459.545 418.905 459.65 418.64 459.65H414.5C414.235 459.65 413.98 459.545 413.793 459.357C413.605 459.17 413.5 458.915 413.5 458.65V443.71C413.5 443.445 413.605 443.19 413.793 443.003C413.98 442.815 414.235 442.71 414.5 442.71H418.57H418.64ZM429.43 441.71H425.4C424.87 441.71 424.361 441.921 423.986 442.296C423.611 442.671 423.4 443.18 423.4 443.71V458.65C423.4 459.18 423.611 459.689 423.986 460.064C424.361 460.439 424.87 460.65 425.4 460.65H429.5C430.03 460.65 430.539 460.439 430.914 460.064C431.289 459.689 431.5 459.18 431.5 458.65V443.71C431.5 443.18 431.289 442.671 430.914 442.296C430.539 441.921 430.03 441.71 429.5 441.71H429.43ZM418.57 441.71H414.5C413.97 441.71 413.461 441.921 413.086 442.296C412.711 442.671 412.5 443.18 412.5 443.71V458.65C412.5 459.18 412.711 459.689 413.086 460.064C413.461 460.439 413.97 460.65 414.5 460.65H418.57C419.1 460.65 419.609 460.439 419.984 460.064C420.359 459.689 420.57 459.18 420.57 458.65V443.71C420.57 443.18 420.359 442.671 419.984 442.296C419.609 441.921 419.1 441.71 418.57 441.71Z" fill="white"/>
<path opacity="0.5" d="M542 417.49H302V420.16H542V417.49Z" fill="#C0E3E7"/>
<path d="M376.11 424.66C374.955 424.662 373.824 424.321 372.863 423.681C371.901 423.04 371.151 422.129 370.707 421.062C370.264 419.995 370.147 418.82 370.371 417.687C370.595 416.553 371.151 415.512 371.967 414.694C372.783 413.876 373.824 413.319 374.957 413.093C376.09 412.867 377.265 412.982 378.333 413.424C379.4 413.865 380.313 414.614 380.955 415.574C381.597 416.535 381.94 417.665 381.94 418.82C381.94 420.367 381.326 421.851 380.233 422.946C379.14 424.041 377.657 424.657 376.11 424.66V424.66Z" fill="white"/>
<path d="M376.11 413.49C377.167 413.488 378.201 413.8 379.081 414.386C379.96 414.972 380.646 415.806 381.052 416.782C381.457 417.758 381.564 418.833 381.358 419.87C381.152 420.906 380.643 421.859 379.896 422.606C379.149 423.354 378.196 423.862 377.159 424.068C376.123 424.274 375.048 424.167 374.072 423.762C373.096 423.356 372.262 422.67 371.676 421.791C371.09 420.911 370.778 419.877 370.78 418.82C370.78 417.407 371.342 416.051 372.341 415.051C373.341 414.052 374.696 413.49 376.11 413.49V413.49ZM376.11 412.49C374.855 412.488 373.628 412.859 372.584 413.555C371.54 414.25 370.726 415.241 370.245 416.399C369.763 417.558 369.637 418.834 369.881 420.065C370.126 421.295 370.73 422.426 371.617 423.313C372.504 424.201 373.635 424.805 374.866 425.049C376.096 425.293 377.372 425.167 378.531 424.686C379.69 424.205 380.68 423.39 381.376 422.346C382.072 421.302 382.442 420.075 382.44 418.82C382.44 417.141 381.773 415.531 380.586 414.344C379.399 413.157 377.789 412.49 376.11 412.49V412.49Z" fill="white"/>
<path d="M375.61 417.99H302.5V419.66H375.61V417.99Z" fill="white"/>
<path d="M375.11 418.49V419.16H303V418.49H375.11ZM376.11 417.49H302V420.16H376.11V417.49Z" fill="white"/>
<path d="M311 256.44C336.405 256.44 357 235.845 357 210.44C357 185.035 336.405 164.44 311 164.44C285.595 164.44 265 185.035 265 210.44C265 235.845 285.595 256.44 311 256.44Z" fill="#041F28"/>
<path d="M533 256.44C558.405 256.44 579 235.845 579 210.44C579 185.035 558.405 164.44 533 164.44C507.595 164.44 487 185.035 487 210.44C487 235.845 507.595 256.44 533 256.44Z" fill="#041F28"/>
<path d="M328 196.44C331.866 196.44 335 193.306 335 189.44C335 185.574 331.866 182.44 328 182.44C324.134 182.44 321 185.574 321 189.44C321 193.306 324.134 196.44 328 196.44Z" fill="white"/>
<path d="M556 196.44C559.866 196.44 563 193.306 563 189.44C563 185.574 559.866 182.44 556 182.44C552.134 182.44 549 185.574 549 189.44C549 193.306 552.134 196.44 556 196.44Z" fill="white"/>
<path d="M543 303.44C543 312.27 488.83 335.44 422 335.44C355.17 335.44 301 312.27 301 303.44C301 294.61 355.17 303.44 422 303.44C488.83 303.44 543 294.6 543 303.44Z" fill="white"/>
<path d="M998.83 487.04L999.62 486.5C995.965 487.593 992.175 488.166 988.36 488.2C981.878 488.084 975.483 486.69 969.54 484.1C959.75 479.87 951.35 472.82 944.48 464.65C934.98 453.35 927.8 439.43 915.13 431.88C912.522 430.232 909.606 429.129 906.56 428.64C901.2 427.95 895.93 429.99 890.73 431.48C868.26 437.94 841.65 433.21 826.15 415.68C822.87 411.98 820.15 407.8 816.51 404.42C804.51 393.22 785.35 393.51 770.17 399.73C769.25 400.1 768.34 400.51 767.45 400.95C767.489 400.741 767.539 400.534 767.6 400.33C764.82 401.406 762.362 403.175 760.46 405.47C757.64 409.24 757.64 414.13 758.39 418.58C758.553 420.014 758.937 421.414 759.53 422.73C757.662 424.942 756.638 427.745 756.64 430.64C756.64 431 756.64 431.35 756.69 431.7C747.735 433.708 739.63 438.458 733.502 445.289C727.373 452.119 723.528 460.691 722.5 469.81C722.5 469.71 722.5 469.61 722.5 469.52C722.336 471.071 722.252 472.63 722.25 474.19C722.25 474.29 722.25 474.39 722.25 474.49C722.25 474.59 722.25 474.68 722.25 474.78C722.242 480.739 723.444 486.637 725.783 492.117C728.123 497.597 731.551 502.545 735.86 506.66C738.293 513.388 742.858 519.137 748.86 523.03C748.74 523.53 748.62 524.03 748.48 524.54C746.21 532.78 740.91 541.48 729.02 545.34C728.52 545.51 728.02 545.66 727.48 545.81L725.02 546.5L724.02 546.8C699.44 553.93 692.41 559.69 690.18 569.19C688.34 577.01 686.18 590.99 685.29 596.59C683.51 600.71 671.41 629.34 672.37 645.89C672.53 648.74 672.61 651.59 672.56 654.45C672.45 660.24 674.11 669.57 686.39 667.11C693.39 665.71 704.39 662.36 715.23 658.83C714.597 660.77 713.883 662.68 713.09 664.56C711.48 668.37 709.53 672.34 708.52 676.34V676.45L708.4 676.94C708.4 677.04 708.4 677.13 708.4 677.23C708.4 677.33 708.33 677.57 708.29 677.74C708.25 677.91 708.29 677.83 708.29 677.88C708.295 677.943 708.295 678.007 708.29 678.07C708.29 678.29 708.22 678.5 708.19 678.72C708.16 678.94 708.11 679.29 708.08 679.58C708.08 679.76 708.08 679.94 708.08 680.12C708.085 680.207 708.085 680.293 708.08 680.38C708.08 680.38 708.08 680.44 708.08 680.46V680.55C708.08 680.7 708.08 680.86 708.08 681.01C708.08 681.16 708.08 681.19 708.08 681.27C708.08 681.35 708.08 681.54 708.08 681.68C708.085 681.777 708.085 681.874 708.08 681.97C708.08 682.23 708.08 682.49 708.13 682.75C708.13 682.75 708.13 682.82 708.13 682.85C708.13 682.88 708.13 683.18 708.19 683.34C708.25 683.5 708.19 683.6 708.19 683.73C708.19 683.86 708.19 683.85 708.19 683.91L708.28 684.37C708.28 684.48 708.28 684.6 708.35 684.71L708.47 685.18C708.47 685.33 708.55 685.47 708.6 685.62C709.1 686.814 709.456 688.062 709.66 689.34C709.699 690.051 709.621 690.764 709.43 691.45V691.45L709.28 691.99C709.284 692.03 709.284 692.07 709.28 692.11C709.17 692.49 709.04 692.87 708.91 693.25C708.84 693.46 708.77 693.67 708.71 693.88C708.71 693.94 708.71 694 708.64 694.07L708.58 694.27L708.52 694.48V694.57L708.37 695.18C708.37 695.24 708.37 695.29 708.37 695.36C708.365 695.437 708.365 695.514 708.37 695.59V695.74C708.365 695.837 708.365 695.934 708.37 696.03V696.03C708.375 696.093 708.375 696.157 708.37 696.22V696.31C708.36 696.487 708.36 696.664 708.37 696.84C708.554 698.469 709.127 700.029 710.04 701.39C710.23 701.72 710.44 702.04 710.63 702.39L668.63 701.7C659.764 701.506 651.134 704.573 644.38 710.32C632.31 720.72 636.96 730.86 646.54 739.15C656.94 748.15 673.16 755 680 757.63C682 758.42 683.22 758.83 683.22 758.83H786.22L787.75 759.18C792.453 760.07 797.234 760.482 802.02 760.41C807.841 760.417 813.658 760.083 819.44 759.41C821.18 759.21 822.94 758.98 824.7 758.79H835.7L836.7 758.98C841.81 760.07 847.15 762.88 851.94 760.79C852.931 760.376 853.779 759.681 854.38 758.79H866.67C889.44 758.79 902.51 751.26 908.88 740.92C913.45 733.51 914.57 724.66 913.35 716.12C910.87 698.75 849.94 698.23 831.6 698.47C831.34 698.23 831.07 698.01 830.8 697.8C828.69 696.14 826.14 694.41 825.87 691.72C825.72 690.11 826.46 688.5 826.21 686.9C825.76 684.12 822.69 682.77 820.3 681.3C812.13 676.3 808.96 665.69 809.76 656.15C809.82 655.54 809.88 654.92 809.96 654.31C810.02 653.83 810.1 653.36 810.17 652.89C810.164 652.807 810.164 652.723 810.17 652.64C810.17 652.64 810.17 652.58 810.17 652.55C819.519 655.538 829.019 658.031 838.63 660.02C874.81 667.62 865.47 649.49 865.47 649.49C865.47 649.49 861.39 623.77 859.05 613.83C856.71 603.89 845.05 577.59 845.05 577.59L844.75 576.9C844.66 573.67 843.4 551.23 826.09 546.9C820.93 545.6 815.37 544.52 810.02 543.14L809.64 543.03C807.85 542.57 806.09 542.03 804.38 541.51C794.9 538.44 787.02 533.76 784.89 524.32C784.78 523.81 784.68 523.32 784.6 522.75C790.713 518.697 795.29 512.712 797.6 505.75C805.77 497.502 810.349 486.36 810.34 474.75C810.345 474.654 810.345 474.557 810.34 474.46C810.34 474.36 810.34 474.26 810.34 474.16C810.343 472.6 810.259 471.041 810.09 469.49V469.78C809.718 466.449 808.966 463.171 807.85 460.01C811.186 463.022 814.946 465.529 819.01 467.45C823.871 469.655 829.162 470.752 834.5 470.66C837.946 470.718 841.382 470.273 844.7 469.34C852.83 467.03 860.11 461.87 868.48 460.7C869.538 460.561 870.603 460.481 871.67 460.46C880 460.63 888.14 464.39 895.6 468.46C905.291 473.682 914.661 479.479 923.66 485.82C932.53 492.07 941.47 499.04 952.13 501.04C954.504 501.476 956.916 501.674 959.33 501.63C966.046 501.566 972.696 500.293 978.96 497.87C986.69 495.074 994.017 491.267 1000.75 486.55C1000.14 486.7 999.5 486.88 998.83 487.04ZM782.83 433.88C782.2 433.62 781.55 433.37 780.9 433.14C780.953 432.88 780.993 432.62 781.02 432.36C781.63 432.85 782.23 433.36 782.82 433.88H782.83ZM700.91 639.05C700.91 639.05 708.28 618.44 708.32 613.31L712.88 600.22L714.57 602.92C714.42 603.82 714.28 604.72 714.14 605.62C714 606.52 713.88 607.3 713.77 608.14C713.65 609 713.55 609.85 713.48 610.71C713.48 610.95 713.48 611.19 713.43 611.43C713.43 611.49 713.43 611.56 713.43 611.62V612.24C713.43 612.33 713.43 612.43 713.43 612.52C713.43 612.61 713.43 612.83 713.43 612.98V613.3C713.43 613.54 713.43 613.77 713.43 614C713.425 614.083 713.425 614.167 713.43 614.25C713.43 614.36 713.43 614.48 713.43 614.6C713.43 614.93 713.48 615.26 713.51 615.6C713.51 615.6 713.51 615.6 713.51 615.66C713.51 615.72 713.51 615.76 713.51 615.8C713.515 615.857 713.515 615.914 713.51 615.97C713.51 616.32 713.61 616.67 713.68 616.97C713.75 617.27 713.84 617.7 713.93 618.07V618.18C714.81 621.43 716.74 624.29 717.79 627.49C717.88 627.78 717.97 628.08 718.05 628.37L718.14 628.73L718.29 629.35L718.38 629.8L718.5 630.46C718.5 630.55 718.5 630.64 718.5 630.73C718.5 631.05 718.59 631.37 718.63 631.68C718.827 633.516 718.893 635.364 718.83 637.21C718.83 637.78 718.83 638.34 718.77 638.91C710.88 640.22 703.5 640.68 700.91 639.05ZM820.73 600.78C822.56 608.39 833.37 633.2 833.37 633.2C831.37 634.71 823.89 634.38 815.99 633.52C816.14 633.14 816.28 632.77 816.42 632.39L816.64 631.79L817.03 630.79C817.27 630.12 817.52 629.46 817.76 628.79L818.21 627.47C818.21 627.42 818.21 627.36 818.21 627.3C818.36 626.84 818.5 626.38 818.63 625.91C818.69 625.73 818.74 625.54 818.79 625.35V625.29L819.02 624.4C819.02 624.25 819.09 624.11 819.13 623.96L819.31 623.2C819.31 623.09 819.31 622.98 819.38 622.86C819.385 622.78 819.385 622.7 819.38 622.62C819.38 622.49 819.44 622.36 819.46 622.24C819.53 621.93 819.59 621.61 819.64 621.3C819.645 621.207 819.645 621.113 819.64 621.02C819.645 620.964 819.645 620.907 819.64 620.85C819.64 620.63 819.72 620.4 819.75 620.17C819.85 619.503 819.94 618.853 820.02 618.22C820.02 618.09 820.02 617.96 820.02 617.82C820.05 617.628 820.07 617.434 820.08 617.24C820.08 617.06 820.08 616.88 820.08 616.7V616.29C820.08 616.05 820.08 615.81 820.13 615.57C820.18 615.33 820.13 615.25 820.13 615.09C820.135 615.037 820.135 614.983 820.13 614.93V614.93C820.13 614.33 820.13 613.73 820.13 613.13V612.46C820.13 612.25 820.13 612.03 820.13 611.82C820.13 611.54 820.13 611.27 820.13 610.99C820.134 610.964 820.134 610.937 820.13 610.91C820.13 610.72 820.13 610.52 820.13 610.33C820.13 610.33 820.13 610.33 820.13 610.25C820.13 610.17 820.13 610.09 820.13 610.01C820.13 609.53 820.07 609.01 820.03 608.56C820.03 608.4 820.03 608.24 820.03 608.08C819.891 606.59 819.677 605.108 819.39 603.64L820.73 600.78Z" fill="url(#paint0_linear)"/>
<path d="M843.23 579.06L820.06 600.49L818.34 604.98L817.17 607.98L719.27 612.62L714.01 604.28L712.32 601.61L707.69 614.93L684.5 600.49C684.5 600.49 687.39 580.8 689.71 570.95C691.92 561.54 698.9 555.83 723.31 548.77L724.31 548.46L726.75 547.78C727.27 547.64 727.75 547.49 728.28 547.32C740.08 543.49 745.34 534.87 747.59 526.71C749.161 520.737 749.559 514.515 748.76 508.39C748.76 508.39 784.39 497.1 783.23 519.69C783.09 521.996 783.265 524.311 783.75 526.57C785.87 535.92 793.69 540.57 803.1 543.57C804.8 544.117 806.54 544.62 808.32 545.08L808.7 545.18C814.01 546.55 819.53 547.63 824.7 548.91C843.23 553.57 843.23 579.06 843.23 579.06Z" fill="#DB8B8B"/>
<path d="M760.72 408.72C762.78 405.97 766 404.34 769.19 403.04C784.27 396.88 803.28 396.59 815.19 407.69C818.78 411.03 821.5 415.18 824.76 418.85C840.15 436.22 866.56 440.9 888.87 434.5C894.03 433.02 899.27 431 904.59 431.69C907.612 432.171 910.505 433.263 913.09 434.9C925.67 442.38 932.8 456.17 942.23 467.37C949.04 475.46 957.39 482.44 967.11 486.64C976.83 490.84 987.99 492.08 998.11 489.02C991.429 493.685 984.164 497.451 976.5 500.22C968.36 503.16 959.5 504.95 951.03 503.35C940.44 501.35 931.57 494.46 922.76 488.27C913.828 481.989 904.528 476.249 894.91 471.08C886.22 466.4 876.61 462.08 866.83 463.44C858.52 464.59 851.3 469.71 843.22 471.99C835.12 474.273 826.476 473.647 818.79 470.22C798.12 460.82 788.66 433.1 766.53 427.99C760.87 426.69 759.83 428.69 758.67 421.76C757.92 417.3 757.91 412.47 760.72 408.72Z" fill="#041F28"/>
<path opacity="0.1" d="M984.32 491.22C976.18 494.16 967.32 495.95 958.85 494.35C948.26 492.35 939.39 485.47 930.58 479.27C921.648 472.989 912.348 467.249 902.73 462.08C894.04 457.4 884.43 453.08 874.65 454.44C866.34 455.59 859.12 460.71 851.04 463C842.939 465.281 834.295 464.651 826.61 461.22C805.94 451.82 796.48 424.1 774.35 419C768.69 417.69 767.65 419.69 766.48 412.76C765.872 409.751 765.927 406.646 766.64 403.66C763.884 404.728 761.446 406.484 759.56 408.76C756.75 412.5 756.76 417.33 757.56 421.76C758.73 428.69 759.76 426.69 765.42 427.99C787.55 433.1 797.01 460.82 817.68 470.22C825.358 473.671 834.002 474.322 842.11 472.06C850.19 469.78 857.41 464.66 865.72 463.51C875.5 462.15 885.11 466.51 893.8 471.15C903.42 476.321 912.723 482.061 921.66 488.34C930.47 494.53 939.34 501.44 949.92 503.42C958.43 505.02 967.25 503.23 975.39 500.29C983.065 497.517 990.341 493.745 997.03 489.07C993.394 490.152 989.624 490.717 985.83 490.75L984.32 491.22Z" fill="black"/>
<path d="M765.32 521.13C789.471 521.13 809.05 501.551 809.05 477.4C809.05 453.248 789.471 433.67 765.32 433.67C741.169 433.67 721.59 453.248 721.59 477.4C721.59 501.551 741.169 521.13 765.32 521.13Z" fill="#041F28"/>
<path opacity="0.1" d="M765.32 511.29C754.53 511.288 744.121 507.297 736.095 500.085C728.069 492.873 722.992 482.949 721.84 472.22C721.676 473.758 721.592 475.304 721.59 476.85C721.502 482.649 722.569 488.408 724.727 493.791C726.886 499.174 730.093 504.074 734.163 508.206C738.233 512.338 743.084 515.619 748.434 517.858C753.783 520.098 759.525 521.252 765.325 521.252C771.125 521.252 776.866 520.098 782.216 517.858C787.566 515.619 792.417 512.338 796.487 508.206C800.557 504.074 803.764 499.174 805.923 493.791C808.081 488.408 809.148 482.649 809.06 476.85C809.057 475.304 808.974 473.758 808.81 472.22C807.658 482.951 802.579 492.876 794.551 500.088C786.523 507.301 776.112 511.29 765.32 511.29Z" fill="black"/>
<path opacity="0.1" d="M783.8 526.57C778.466 530.176 772.18 532.115 765.741 532.14C759.303 532.164 753.002 530.275 747.64 526.71C749.212 520.737 749.609 514.515 748.81 508.39C748.81 508.39 784.44 497.1 783.28 519.69C783.141 521.996 783.316 524.311 783.8 526.57V526.57Z" fill="black"/>
<path d="M765.61 530.4C783.526 530.4 798.05 515.876 798.05 497.96C798.05 480.044 783.526 465.52 765.61 465.52C747.694 465.52 733.17 480.044 733.17 497.96C733.17 515.876 747.694 530.4 765.61 530.4Z" fill="#DB8B8B"/>
<path opacity="0.05" d="M761.09 586.48C762.68 588.172 764.026 590.076 765.09 592.14C766.78 595.46 767.71 599.49 766.2 602.91C765.639 600.781 765.543 598.556 765.919 596.387C766.296 594.218 767.135 592.155 768.38 590.34C770.923 586.736 774.431 583.922 778.5 582.22" fill="black"/>
<path d="M906.85 741.22C900.53 751.46 887.56 758.93 864.96 758.93H682.5C682.5 758.93 681.31 758.52 679.31 757.74C672.52 755.13 656.42 748.35 646.09 739.42C636.59 731.21 631.96 721.17 643.95 710.85C650.661 705.161 659.224 702.126 668.02 702.32L729.42 703.32L824.99 699.22C824.99 699.22 908.4 696.32 911.3 716.59C912.5 725.1 911.39 733.87 906.85 741.22Z" fill="#041F28"/>
<path d="M832.5 705.22C831.5 707.4 828.8 707.92 826.5 708.59C817.04 711.36 811.2 720.59 803.66 726.9C799.858 730.091 795.539 732.611 790.89 734.35C780.33 738.35 768.56 737.98 757.59 735.42C746.62 732.86 734.14 730.7 725.89 723.02C719.291 716.888 713.64 709.811 709.12 702.02C708.208 700.674 707.638 699.126 707.46 697.51C707.45 697.337 707.45 697.163 707.46 696.99C707.45 696.89 707.45 696.79 707.46 696.69C707.45 696.593 707.45 696.496 707.46 696.4C707.46 696.27 707.46 696.14 707.53 696.02C707.553 695.874 707.586 695.731 707.63 695.59C707.63 695.44 707.7 695.3 707.74 695.15C707.78 695 707.83 694.87 707.87 694.73C708.07 694.07 708.31 693.43 708.51 692.73C708.58 692.51 708.64 692.29 708.69 692.08C708.881 691.401 708.959 690.694 708.92 689.99C708.712 688.724 708.359 687.486 707.87 686.3C707.87 686.16 707.78 686.01 707.74 685.87C707.7 685.73 707.65 685.54 707.61 685.38C707.54 685.06 707.47 684.74 707.41 684.38C707.35 684.02 707.32 683.73 707.29 683.38C707.242 682.895 707.218 682.407 707.22 681.92C707.22 681.65 707.22 681.38 707.22 681.12C707.21 681.091 707.21 681.059 707.22 681.03C707.22 680.76 707.22 680.5 707.27 680.24C707.33 679.68 707.41 679.11 707.52 678.55C707.52 678.24 707.63 677.94 707.7 677.62C707.74 677.473 707.78 677.313 707.82 677.14C707.815 677.103 707.815 677.066 707.82 677.03C708.82 673.03 710.76 669.14 712.36 665.35C715.972 656.793 717.95 647.635 718.19 638.35C718.253 636.524 718.186 634.696 717.99 632.88C717.99 632.68 717.94 632.49 717.92 632.29C717.9 632.09 717.83 631.65 717.76 631.29C717.69 630.93 717.63 630.59 717.55 630.29C717.47 629.99 717.44 629.85 717.37 629.63C717.3 629.41 717.21 629.05 717.12 628.76C716.12 625.58 714.12 622.76 713.27 619.5C713.17 619.1 713.08 618.7 713 618.3C712.93 617.95 712.87 617.61 712.83 617.3C712.83 617.18 712.83 617.06 712.83 616.93C712.77 616.41 712.74 615.93 712.73 615.36C712.73 615.13 712.73 614.91 712.73 614.67C712.73 614.43 712.73 614.15 712.73 613.89C712.73 613.63 712.73 613.18 712.78 612.82C712.83 612.46 712.78 612.34 712.78 612.1C712.78 611.66 712.86 611.23 712.92 610.81C712.98 610.39 713.02 609.95 713.08 609.52C713.19 608.69 713.32 607.85 713.45 607.02C713.58 606.19 713.73 605.23 713.88 604.34C714.58 600.25 715.51 596.17 717.61 592.62C720.69 587.43 726.2 583.42 727.15 577.46C727.405 575.073 727.219 572.659 726.6 570.34C726.48 569.82 726.37 569.34 726.26 568.79C724.796 562.199 723.774 555.517 723.2 548.79L724.2 548.48L726.64 547.8C727.16 547.66 727.64 547.51 728.17 547.34C728.52 554.066 729.406 560.754 730.82 567.34C731.92 572.48 733.37 577.64 736.12 582.14C738.87 586.64 743.04 590.44 748.12 591.79C751.49 592.69 755.06 592.47 758.54 592.17C765.54 591.56 772.49 590.6 779.38 589.31C784.38 588.31 789.45 587.22 793.93 584.77C795.114 584.186 796.171 583.374 797.04 582.38C798.005 581.011 798.67 579.454 798.99 577.81C801.887 566.634 803.233 555.113 802.99 543.57C804.69 544.116 806.43 544.62 808.21 545.08L808.59 545.18C808.59 547.07 808.5 548.95 808.41 550.83C808.36 551.97 808.29 553.11 808.22 554.26C808.22 554.9 808.13 555.55 808.07 556.19C808.07 556.65 807.98 557.12 807.94 557.58C807.94 557.72 807.94 557.86 807.89 558C807.83 558.56 807.77 559.12 807.7 559.67C807.61 560.42 807.5 561.17 807.39 561.92L807.24 562.92C807.03 564.36 806.81 565.81 806.63 567.26C806.337 569.414 806.214 571.587 806.26 573.76C806.42 578.5 809.08 583.18 811.92 586.98C815.33 591.55 816.22 596.64 817.59 602.17C817.81 603.08 818.01 604 818.18 604.92C818.46 606.38 818.67 607.85 818.81 609.32C818.81 609.6 818.81 609.88 818.88 610.16C818.95 610.44 818.88 610.58 818.88 610.78C818.88 610.98 818.88 611.24 818.88 611.47C818.88 611.7 818.88 611.95 818.88 612.2C818.88 612.45 818.88 612.75 818.88 613.02C818.88 613.79 818.88 614.57 818.88 615.34C818.88 615.61 818.88 615.9 818.88 616.18V616.33C818.88 616.56 818.88 616.79 818.88 617.03C818.88 617.27 818.88 617.62 818.81 617.93C818.74 618.24 818.81 618.29 818.81 618.46L818.75 619.04C818.75 619.33 818.68 619.63 818.64 619.92C818.6 620.21 818.55 620.63 818.5 620.98C818.45 621.33 818.39 621.69 818.33 622.04C818.22 622.7 818.09 623.37 817.94 624.04C817.76 624.87 817.56 625.69 817.33 626.51C817.27 626.76 817.2 627 817.13 627.24C816.87 628.14 816.58 629.03 816.26 629.92C815.13 633.05 813.91 636.18 812.76 639.32C812.57 639.84 812.38 640.32 812.2 640.89C812.02 641.46 811.83 641.89 811.66 642.44C811.48 642.97 811.31 643.5 811.13 644.02C810.95 644.54 810.8 645.02 810.64 645.6C810.31 646.68 810.01 647.76 809.73 648.85C809.65 649.17 809.56 649.49 809.49 649.85C809.49 649.99 809.42 650.15 809.39 650.29C809.36 650.43 809.32 650.58 809.29 650.73C809.14 651.41 809 652.09 808.87 652.78L808.72 653.64C808.63 654.21 808.55 654.77 808.47 655.33C808.39 655.93 808.33 656.55 808.27 657.16C807.47 666.61 810.62 677.16 818.73 682.08C821.11 683.53 824.15 684.87 824.6 687.62C824.85 689.21 824.11 690.8 824.27 692.4C824.53 695.06 827.06 696.78 829.16 698.4C831.5 700.12 833.5 702.78 832.5 705.22Z" fill="#041F28"/>
<g opacity="0.1">
<path opacity="0.1" d="M808.5 647.93C808.289 650.409 808.352 652.905 808.69 655.37C809.81 646.6 813.49 638.37 816.49 629.97C818.844 623.378 819.708 616.346 819.02 609.38C818.649 613.244 817.799 617.046 816.49 620.7C813.23 629.63 809.25 638.47 808.5 647.93Z" fill="black"/>
<path opacity="0.1" d="M808.75 545.22C808.75 547.11 808.66 548.99 808.57 550.87C808.52 552.01 808.46 553.15 808.38 554.3C808.38 554.94 808.29 555.59 808.23 556.23C808.23 556.69 808.14 557.16 808.1 557.62C808.1 557.76 808.1 557.9 808.05 558.04C807.99 558.6 807.93 559.16 807.86 559.71C807.77 560.46 807.66 561.21 807.55 561.96L807.4 562.96C807.19 564.4 806.97 565.85 806.79 567.3C806.578 566.391 806.454 565.463 806.42 564.53C806.26 559.8 807.27 555.12 807.86 550.41C808.08 548.65 808.25 546.87 808.37 545.09L808.75 545.22Z" fill="black"/>
<path opacity="0.1" d="M717.24 628.78C717.669 630.13 717.961 631.521 718.11 632.93C718.21 631.67 718.28 630.4 718.31 629.14C718.504 625.892 718.142 622.636 717.24 619.51C716.24 616.33 714.24 613.51 713.39 610.26C713.33 610 713.26 609.75 713.21 609.5C712.601 612.812 712.663 616.212 713.39 619.5C714.27 622.75 716.2 625.6 717.24 628.78Z" fill="black"/>
<path opacity="0.1" d="M829.35 698.48C828.42 698.82 827.42 699.07 826.5 699.34C817.04 702.11 811.2 711.34 803.66 717.65C799.858 720.844 795.54 723.367 790.89 725.11C780.33 729.05 768.56 728.73 757.59 726.17C746.62 723.61 734.14 721.45 725.89 713.78C719.297 707.643 713.646 700.566 709.12 692.78L708.77 692.16C708.32 693.95 707.41 695.7 707.47 697.54C707.641 699.156 708.208 700.705 709.12 702.05C713.643 709.839 719.294 716.915 725.89 723.05C734.14 730.73 746.62 732.89 757.59 735.45C768.56 738.01 780.33 738.33 790.89 734.38C795.541 732.644 799.86 730.124 803.66 726.93C811.2 720.58 817.04 711.39 826.5 708.62C828.78 707.95 831.5 707.43 832.5 705.25C833.5 702.78 831.5 700.13 829.35 698.48Z" fill="black"/>
<path opacity="0.1" d="M708.98 680.76C708.793 679.511 708.457 678.289 707.98 677.12C707.154 679.986 707.106 683.02 707.84 685.91C708.29 684.22 709.1 682.52 708.98 680.76Z" fill="black"/>
<path opacity="0.1" d="M727.28 568.22C727.161 568.951 726.977 569.671 726.73 570.37C726.61 569.85 726.5 569.37 726.39 568.82C724.927 562.229 723.904 555.547 723.33 548.82L724.33 548.51C724.87 552.223 725.537 555.89 726.33 559.51C727.02 562.36 727.74 565.29 727.28 568.22Z" fill="black"/>
</g>
<path d="M691.76 592.67L685.1 597.6C685.1 597.6 671.02 629.22 672.05 646.95C672.21 649.77 672.29 652.6 672.24 655.43C672.13 661.17 673.78 670.43 685.97 667.98C703.34 664.5 746.21 648.86 746.21 648.86L743.31 634.96C743.31 634.96 706.82 644.22 700.5 640.22C700.5 640.22 708.9 616.76 707.74 613.87C706.58 610.98 691.76 592.67 691.76 592.67Z" fill="#DB8B8B"/>
<path d="M839.5 570.08L843.5 579.35C843.5 579.35 855.09 605.42 857.4 615.26C859.71 625.1 863.78 650.6 863.78 650.6C863.78 650.6 873.04 668.6 837.13 661.02C801.22 653.44 786.13 644.23 786.13 644.23L793.13 631.48C793.13 631.48 827.3 637.85 831.94 634.38C831.94 634.38 818.04 602.52 819.19 600.2C820.34 597.88 839.5 570.08 839.5 570.08Z" fill="#DB8B8B"/>
<path d="M737.5 639.01L743.29 633.8C743.29 633.8 754.29 582.8 764.15 590.36C774.01 597.92 760.09 641.36 760.09 641.36L746.19 648.89L737.5 639.01Z" fill="#DB8B8B"/>
<path d="M796.6 635.54L793.13 631.48C793.13 631.48 780.96 581.09 770.54 589.78C760.12 598.47 781.5 640.22 781.5 640.22L786.14 644.28L795.4 641.96L796.6 635.54Z" fill="#DB8B8B"/>
<path d="M820.35 728.8C820.35 728.8 776.84 733.34 773.11 735.99C769.38 738.64 771.7 754.86 771.7 754.86L829.04 751.39L820.35 728.8Z" fill="#DB8B8B"/>
<path opacity="0.1" d="M820.35 728.8C820.35 728.8 776.84 733.34 773.11 735.99C769.38 738.64 771.7 754.86 771.7 754.86L829.04 751.39L820.35 728.8Z" fill="black"/>
<path opacity="0.1" d="M894.79 741.83C888.47 752.07 886.4 757.76 863.79 757.76H813.98V727.64L820.35 724.16C847.58 712 877.7 716.05 877.7 716.05L894.79 741.83Z" fill="black"/>
<path d="M906.85 741.22C900.53 751.46 887.56 758.93 864.96 758.93H815.14V728.8L821.5 725.32C848.73 713.16 878.85 717.21 878.85 717.21L906.85 741.22Z" fill="#041F28"/>
<path d="M799.32 733.99C801.32 733.47 803.47 732.86 805.55 733.19C806.803 733.434 807.988 733.947 809.023 734.693C810.059 735.438 810.921 736.399 811.55 737.51C811.971 738.408 812.562 739.216 813.29 739.89C814.146 740.412 815.127 740.692 816.13 740.7C822.98 741.35 829.96 741.34 836.62 743.09C843.28 744.84 849.81 748.71 852.71 754.96C853.081 755.668 853.286 756.451 853.31 757.25C853.193 758.075 852.851 758.852 852.322 759.496C851.793 760.14 851.097 760.626 850.31 760.9C845.56 762.97 840.25 760.19 835.18 759.1C829.46 757.87 823.54 758.87 817.72 759.53C811.981 760.198 806.208 760.532 800.43 760.53C795.681 760.569 790.941 760.13 786.28 759.22C783.67 758.67 781.1 757.9 778.46 757.55C775.943 757.277 773.41 757.183 770.88 757.27C759.167 757.403 747.467 757.227 735.78 756.74C732.07 756.59 728.29 756.4 724.84 755.04C724.086 754.818 723.43 754.345 722.98 753.7C722.727 753.194 722.6 752.635 722.61 752.07C722.294 746.409 723.437 740.762 725.93 735.67C726.74 734 728.33 730.12 730.13 729.3C731.93 728.48 736.67 730.47 738.68 730.92C751.47 733.82 764.48 736.31 777.68 736.4C784.966 736.511 792.237 735.702 799.32 733.99Z" fill="#DB8B8B"/>
<path opacity="0.1" d="M734.62 727.06L726.88 757.22L679.3 756.03C672.51 753.42 689.63 746.16 679.3 737.24L666.85 708.52C666.85 708.52 682.49 710.84 692.92 714.9C703.35 718.96 709.72 718.37 709.72 718.37C709.72 718.37 732.31 724.16 734.62 727.06Z" fill="black"/>
<path d="M734.62 728.8L726.88 758.92L679.3 757.73C672.51 755.12 656.41 748.34 646.08 739.41L666.85 710.22C666.85 710.22 682.49 712.54 692.92 716.59C703.35 720.64 709.72 720.07 709.72 720.07C709.72 720.07 732.31 725.9 734.62 728.8Z" fill="#041F28"/>
<path d="M799.859 473.242C800.952 464.029 786.412 454.728 767.381 452.469C748.35 450.21 732.036 455.848 730.943 465.061C729.849 474.275 744.39 483.576 763.42 485.835C782.451 488.094 798.765 482.456 799.859 473.242Z" fill="#041F28"/>
<path d="M767.93 445.83C774.646 445.83 780.09 440.386 780.09 433.67C780.09 426.954 774.646 421.51 767.93 421.51C761.214 421.51 755.77 426.954 755.77 433.67C755.77 440.386 761.214 445.83 767.93 445.83Z" fill="#041F28"/>
<path opacity="0.1" d="M755.77 433.67C755.77 433.67 771.02 430.73 778.45 435.67C785.88 440.61 755.77 433.67 755.77 433.67Z" fill="black"/>
<path d="M809 472.09C809 473.09 808.33 474.26 806 472.22C800.12 467.09 786.59 453.57 768 453.57C748.62 453.57 732.91 467.44 726 472.22C723.66 473.84 722 472.96 722 472.09C722 468.68 742 441.22 768 441.22C794 441.22 809 468.68 809 472.09Z" fill="#C0E3E7"/>
<path opacity="0.1" d="M807.86 468.81C807.56 469.46 806.74 469.74 805 468.22C799.12 463.09 785.59 449.57 767 449.57C747.62 449.57 731.91 463.44 725 468.22C724.507 468.576 723.955 468.843 723.37 469.01C722.707 469.932 722.241 470.98 722 472.09C722 472.96 723.66 473.84 726 472.22C732.91 467.44 748.62 453.57 768 453.57C786.59 453.57 800.12 467.09 806 472.22C808.33 474.22 809 473.06 809 472.09C808.811 470.939 808.425 469.83 807.86 468.81V468.81Z" fill="black"/>
<path d="M809.38 471.96H806.11V490.47H809.38V471.96Z" fill="#6A5C99"/>
<path d="M801.75 483.93C804.734 483.93 807.595 485.115 809.705 487.225C811.815 489.335 813 492.196 813 495.18V495.91C813 498.894 811.815 501.755 809.705 503.865C807.595 505.975 804.734 507.16 801.75 507.16V483.93Z" fill="#C0E3E7"/>
<path d="M804.65 485.38C804.65 483.977 803.513 482.84 802.11 482.84C800.707 482.84 799.57 483.977 799.57 485.38V505.7C799.57 507.103 800.707 508.24 802.11 508.24C803.513 508.24 804.65 507.103 804.65 505.7V485.38Z" fill="#C0E3E7"/>
<path d="M722.01 490.83H725.28V472.32H722.01V490.83Z" fill="#6A5C99"/>
<path d="M729.64 507.52C726.656 507.52 723.795 506.335 721.685 504.225C719.575 502.115 718.39 499.254 718.39 496.27V495.54C718.39 492.556 719.575 489.695 721.685 487.585C723.795 485.475 726.656 484.29 729.64 484.29V484.29V507.52Z" fill="#C0E3E7"/>
<path d="M726.73 506.07C726.73 507.473 727.867 508.61 729.27 508.61C730.673 508.61 731.81 507.473 731.81 506.07V485.75C731.81 484.347 730.673 483.21 729.27 483.21C727.867 483.21 726.73 484.347 726.73 485.75V506.07Z" fill="#C0E3E7"/>
<path d="M974.2 715.88C992.867 715.88 1008 712.97 1008 709.38C1008 705.79 992.867 702.88 974.2 702.88C955.533 702.88 940.4 705.79 940.4 709.38C940.4 712.97 955.533 715.88 974.2 715.88Z" fill="#041F28"/>
<path d="M973.63 711.77C975.806 711.77 977.57 709.464 977.57 706.62C977.57 703.775 975.806 701.47 973.63 701.47C971.454 701.47 969.69 703.775 969.69 706.62C969.69 709.464 971.454 711.77 973.63 711.77Z" fill="#3F3D56"/>
<path d="M973.63 705.47C975.806 705.47 977.57 703.164 977.57 700.32C977.57 697.476 975.806 695.17 973.63 695.17C971.454 695.17 969.69 697.476 969.69 700.32C969.69 703.164 971.454 705.47 973.63 705.47Z" fill="#3F3D56"/>
<path d="M973.63 699.18C975.806 699.18 977.57 696.874 977.57 694.03C977.57 691.186 975.806 688.88 973.63 688.88C971.454 688.88 969.69 691.186 969.69 694.03C969.69 696.874 971.454 699.18 973.63 699.18Z" fill="#3F3D56"/>
<path d="M973.63 692.88C975.806 692.88 977.57 690.574 977.57 687.73C977.57 684.886 975.806 682.58 973.63 682.58C971.454 682.58 969.69 684.886 969.69 687.73C969.69 690.574 971.454 692.88 973.63 692.88Z" fill="#3F3D56"/>
<path d="M973.63 686.58C975.806 686.58 977.57 684.275 977.57 681.43C977.57 678.586 975.806 676.28 973.63 676.28C971.454 676.28 969.69 678.586 969.69 681.43C969.69 684.275 971.454 686.58 973.63 686.58Z" fill="#3F3D56"/>
<path d="M973.63 680.29C975.806 680.29 977.57 677.985 977.57 675.14C977.57 672.296 975.806 669.99 973.63 669.99C971.454 669.99 969.69 672.296 969.69 675.14C969.69 677.985 971.454 680.29 973.63 680.29Z" fill="#3F3D56"/>
<path d="M973.63 673.99C975.806 673.99 977.57 671.684 977.57 668.84C977.57 665.996 975.806 663.69 973.63 663.69C971.454 663.69 969.69 665.996 969.69 668.84C969.69 671.684 971.454 673.99 973.63 673.99Z" fill="#3F3D56"/>
<path d="M988.37 625.75C988.903 625.066 989.391 624.348 989.83 623.6L979.49 621.9L990.67 621.98C991.746 619.648 992.332 617.12 992.394 614.552C992.456 611.985 991.992 609.432 991.03 607.05L976.03 614.83L989.87 604.66C988.572 602.424 986.828 600.48 984.746 598.947C982.664 597.414 980.289 596.325 977.769 595.749C975.249 595.173 972.637 595.122 970.096 595.598C967.555 596.074 965.139 597.068 962.998 598.518C960.858 599.968 959.038 601.842 957.653 604.025C956.268 606.208 955.346 608.652 954.946 611.206C954.546 613.761 954.675 616.37 955.326 618.872C955.977 621.374 957.136 623.715 958.73 625.75C957.897 626.82 957.176 627.972 956.58 629.19L970.01 636.19L955.69 631.39C954.682 634.358 954.429 637.529 954.953 640.619C955.477 643.709 956.761 646.62 958.69 649.09C956.504 651.871 955.145 655.211 954.768 658.727C954.39 662.244 955.01 665.796 956.556 668.977C958.101 672.159 960.511 674.841 963.509 676.717C966.507 678.594 969.973 679.589 973.51 679.589C977.047 679.589 980.512 678.594 983.511 676.717C986.509 674.841 988.918 672.159 990.464 668.977C992.01 665.796 992.63 662.244 992.252 658.727C991.875 655.211 990.516 651.871 988.33 649.09C990.941 645.766 992.36 641.662 992.36 637.435C992.36 633.209 990.941 629.104 988.33 625.78L988.37 625.75Z" fill="#041F28"/>
<path opacity="0.1" d="M954.7 637.41C954.686 641.633 956.095 645.737 958.7 649.06C956.514 651.841 955.155 655.18 954.778 658.697C954.4 662.214 955.02 665.766 956.566 668.947C958.111 672.128 960.521 674.81 963.519 676.687C966.517 678.563 969.983 679.559 973.52 679.559C977.057 679.559 980.522 678.563 983.521 676.687C986.519 674.81 988.928 672.128 990.474 668.947C992.02 665.766 992.64 662.214 992.262 658.697C991.885 655.18 990.526 651.841 988.34 649.06C990.89 645.86 954.7 635.29 954.7 637.41Z" fill="black"/>
<defs>
<linearGradient id="paint0_linear" x1="818.77" y1="761.65" x2="818.77" y2="395.44" gradientUnits="userSpaceOnUse">
<stop stop-color="#808080" stop-opacity="0.25"/>
<stop offset="0.54" stop-color="#808080" stop-opacity="0.12"/>
<stop offset="1" stop-color="#808080" stop-opacity="0.1"/>
</linearGradient>
</defs>
</svg>
